<svg xmlns="http://www.w3.org/2000/svg" viewBox="0 0 900 900" width="900" height="900" fill="none" stroke-linejoin="round"><g><path d="M706.7 450l47.5 14.5 32.5 17.7 7.7 17.3-18.8 13.2-38.7 6.9-45.8 1.2-38.3-0.6-19.4 3.2 4.3 12.3 24.6 23.8 34.8 33.2 31.8 36.6 17 31.4-4.4 18.5-25.4 1.3-39.5-14.4-42.7-23.3-35.3-21.3-20.7-8.9-4.5 10.6 7.5 30.4 11.8 43.5 7.8 44.8-2.2 32.9-13.9 10.8-23.3-14.6-27.2-35.2-25.3-44.3-19.5-38.8-12.9-20.5-8.4 4.6-7.6 28-10.2 41.9-14.2 41.3-16.8 26.3-15.9 1.7-11.2-24.6-4.3-44 1.7-50.7 3.9-42.6 0.4-23.1-8.5 1.2-19.8 22.2-29.3 33.1-32.7 30.7-27.7 16.7-15-4 1.8-24.4 17.2-37.8 25.5-40.5 23-32.6 9.9-17.5-10.2-1.1-30.7 11.3-44.6 15.7-46.5 11.8-35.2 1.7-14-10.1 10.9-19.7 30.8-23.9 39.5-22.4 33.5-17 14.8-10.9-10.6-6.9-34.2-6.7-48.2-9.9-47.5-14.5-32.5-17.7-7.7-17.3 18.8-13.2 38.7-6.9 45.8-1.2 38.3 0.6 19.4-3.2-4.3-12.3-24.6-23.8-34.8-33.2-31.8-36.6-17-31.4 4.4-18.5 25.4-1.3 39.5 14.4 42.7 23.3 35.3 21.3 20.7 8.9 4.5-10.6-7.5-30.4-11.8-43.5-7.8-44.8 2.2-32.9 13.9-10.8 23.3 14.6 27.2 35.2 25.3 44.3 19.5 38.8 12.9 20.5 8.4-4.6 7.6-28 10.2-41.9 14.2-41.3 16.8-26.3 15.9-1.7 11.2 24.6 4.3 44-1.7 50.7-3.9 42.6-0.4 23.1 8.5-1.2 19.8-22.2 29.3-33.1 32.7-30.7 27.7-16.7 15 4-1.8 24.4-17.2 37.8-25.5 40.5-23 32.6-9.9 17.5 10.2 1.1 30.7-11.3 44.6-15.7 46.5-11.8 35.2-1.7 14 10.1-10.9 19.7-30.8 23.9-39.5 22.4-33.5 17-14.8 10.9 10.6 6.9 34.2 6.7 48.2 9.9" stroke="#7A5420" stroke-width="0.6" stroke-opacity="0.55"/><path d="M794.3 450l34.8 18.1 11.1 19.2-16.2 16.5-38.5 10.9-49.1 4.8-44.8 1.4-27.9 3.1-4.3 9.8 17.9 20 31.1 29.4 31.3 34.1 18.8 31-1.9 20-23.9 4-40.2-12.2-46-22.7-40.2-23.5-26.1-13.6-8.6 4.3 5.8 24.3 12.8 39.2 10.9 43.7 1.9 35-10.4 15.5-21.2-9.1-27.2-30.9-26.7-42.5-21.5-40-14-23.9-8.1 0.6-5.6 25.5-7.1 42.3-11.2 45.4-14.9 33.8-16.1 10.8-13.4-15.7-7.9-37.4-2.1-47.1 1-42.3-1-24.7-8.3-0.5-18.9 22.1-29 35.7-34.1 36.3-31.8 24-21.5 3.4-6-18.7 9.5-34.9 19.4-40.9 19.7-35.4 9.2-21.5-9.1-4.6-29.4 9.4-44.7 15.9-49.3 13.5-40.7 3.8-21.2-9.1 3.5-20.6 25.5-27.1 37.4-27.4 35.2-22.5 19.6-15.7-4.4-10.1-28.5-8.1-44.8-9.9-47.2-14.2-34.8-18.1-11.1-19.2 16.2-16.5 38.5-10.9 49.1-4.8 44.8-1.4 27.9-3.1 4.3-9.8-17.9-20-31.1-29.4-31.3-34.1-18.8-31 1.9-20 23.9-4 40.2 12.2 46 22.7 40.2 23.5 26.1 13.6 8.6-4.3-5.8-24.3-12.8-39.2-10.9-43.7-1.9-35 10.4-15.5 21.2 9.1 27.2 30.9 26.7 42.5 21.5 40 14 23.9 8.1-0.6 5.6-25.5 7.1-42.3 11.2-45.4 14.9-33.8 16.1-10.8 13.4 15.7 7.9 37.4 2.1 47.1-1 42.3 1 24.7 8.3 0.5 18.9-22.1 29-35.7 34.1-36.3 31.8-24 21.5-3.4 6 18.7-9.5 34.9-19.4 40.9-19.7 35.4-9.2 21.5 9.1 4.6 29.4-9.4 44.7-15.9 49.3-13.5 40.7-3.8 21.2 9.1-3.5 20.6-25.5 27.1-37.4 27.4-35.2 22.5-19.6 15.7 4.4 10.1 28.5 8.1 44.8 9.9 47.2 14.2" stroke="#C9A050" stroke-width="0.6" stroke-opacity="0.5"/><path d="M810 450l14.3 17.8-12.7 16.7-36.8 12.2-50.1 6.2-48.8 1.9-33.8 1.6-10.3 6.5 13.5 15.3 30 24.7 33.8 30.7 24.1 29.9 4.6 21.4-18 7.2-36.2-8.4-44.6-20-41.2-22.8-27.9-15.2-9.9 1.2 6.3 21 15.9 37.8 16.1 45.1 8 39.9-4.8 23.2-17.4-0.3-25.7-22.7-27.4-36.7-23.2-37.4-15.9-24-8.8-0.9-4.9 24.5-5.3 43.6-9.1 50-13.8 41.3-16.7 20.1-16.2-6.7-12.3-30.5-6.9-43.9-3.1-42.7-3.5-27.8-8.9-4.5-18.2 18.9-28 35-34.4 38.3-33.9 28-25.7 7.9-11.6-15.3 4-34.2 15.7-43.4 18.6-40.6 11.2-27.9-4.7-10.7-24.2 5.1-40.5 14-47.2 13.7-41.4 5.2-24-7.9 0.1-20.8 23.4-29.1 38-31 39.4-26.8 26.8-19.3 4.3-12-20.4-7.8-39-7.9-44.9-11.3-35.8-15.4-14.3-17.8 12.7-16.7 36.8-12.2 50.1-6.2 48.8-1.9 33.8-1.6 10.3-6.5-13.5-15.3-30-24.7-33.8-30.7-24.1-29.9-4.6-21.4 18-7.2 36.2 8.4 44.6 20 41.2 22.8 27.9 15.2 9.9-1.2-6.3-21-15.9-37.8-16.1-45.1-8-39.9 4.8-23.2 17.4 0.3 25.7 22.7 27.4 36.7 23.2 37.4 15.9 24 8.8 0.9 4.9-24.5 5.3-43.6 9.1-50 13.8-41.3 16.7-20.1 16.2 6.7 12.3 30.5 6.9 43.9 3.1 42.7 3.5 27.8 8.9 4.5 18.2-18.9 28-35 34.4-38.3 33.9-28 25.7-7.9 11.6 15.3-4 34.2-15.7 43.4-18.6 40.6-11.2 27.9 4.7 10.7 24.2-5.1 40.5-14 47.2-13.7 41.4-5.2 24 7.9-0.1 20.8-23.4 29.1-38 31-39.4 26.8-26.8 19.3-4.3 12 20.4 7.8 39 7.9 44.9 11.3 35.8 15.4" stroke="#F0D9A0" stroke-width="0.6" stroke-opacity="0.59"/><path d="M772.3 450l-5.1 15.1-30.1 12.3-46 7.3-47.9 2.5-35.1 1.2-12.4 4.4 12.6 12 31.8 21.3 38.8 28.4 32 30 13.9 24.2-9.1 12-29.7-2.6-41-14.8-40.5-19.5-29.1-14.2-11.2 0.1 6.2 19.3 17.9 36.9 20.2 46.6 13.1 44.5 0 30.3-14.2 8-24.8-15-29-31.6-26.4-35.6-19.2-25.6-11.2-4.7-5.7 20.3-4.6 41-7.4 50.3-12.5 44.4-16.6 25.3-17.8-1.5-15.2-27.1-10.4-43.7-5.8-46.3-4.5-34.2-7.7-12.4-15.1 12-24.1 30.4-31 36.9-32.1 29.3-25.8 10.7-13.2-12.8 2.2-33.8 14.8-45.5 20.3-45.2 15.6-33.8 2-16.2-16.5 1.5-33.5 13.2-42.7 15.7-40 9-25.3-3.7-2.7-17.5 20.7-27.7 37.4-31.2 41.6-27.9 31.7-20.3 10.7-11.6-14.6-5.5-35.5-3.8-45-6.1-39.8-10.6-21-14.4 5.1-15.1 30.1-12.3 46-7.3 47.9-2.5 35.1-1.2 12.4-4.4-12.6-12-31.8-21.3-38.8-28.4-32-30-13.9-24.2 9.1-12 29.7 2.6 41 14.8 40.5 19.5 29.1 14.2 11.2-0.1-6.2-19.3-17.9-36.9-20.2-46.6-13.1-44.5 0-30.3 14.2-8 24.8 15 29 31.6 26.4 35.6 19.2 25.6 11.2 4.7 5.7-20.3 4.6-41 7.4-50.3 12.5-44.4 16.6-25.3 17.8 1.5 15.2 27.1 10.4 43.7 5.8 46.3 4.5 34.2 7.7 12.4 15.1-12 24.1-30.4 31-36.9 32.1-29.3 25.8-10.7 13.2 12.8-2.2 33.8-14.8 45.5-20.3 45.2-15.6 33.8-2 16.2 16.5-1.5 33.5-13.2 42.7-15.7 40-9 25.3 3.7 2.7 17.5-20.7 27.7-37.4 31.2-41.6 27.9-31.7 20.3-10.7 11.6 14.6 5.5 35.5 3.8 45 6.1 39.8 10.6 21 14.4" stroke="#7A5420" stroke-width="0.6" stroke-opacity="0.5"/><path d="M750.7 450l-21 13.3-39.6 9.6-45 5.2-35.3 2.7-14.3 4.5 10.9 10.6 32 19.3 42 27 37.8 30.3 21.2 26.7-2.3 16.6-24.7 2.8-39.4-9.8-42.1-16.5-32.9-14-15.8-2.3 2.7 15.5 16.4 33.1 21.1 44.6 15.6 44.9 3 33.1-12.3 12.4-24.9-11.2-31.2-29.8-30-37.3-23.2-30.7-14.1-12.3-6.7 12-3.4 34.1-4.9 46-9.4 43.7-14.2 27-16.7 1.4-15.6-25.2-11.4-44.4-6.5-50.1-3.5-40.9-4.7-20.1-10.2 5-18.3 26-25.4 35.9-28 32-23.9 15.5-13.3-7.6 0.9-29.7 13.9-43.9 21-46 18.7-36.3 7-18.6-10.5 0.6-28.4 15-39.8 20.3-40.5 15.6-29 3.5-8.7-11.2 14.4-23.3 32.5-29 39.2-27.5 32.1-20.3 13-11.1-12.2-3.4-34.9-0.1-47.6-1.6-46-6.2-30-11.3-5-14.1 21-13.3 39.6-9.6 45-5.2 35.3-2.7 14.3-4.5-10.9-10.6-32-19.3-42-27-37.8-30.3-21.2-26.7 2.3-16.6 24.7-2.8 39.4 9.8 42.1 16.5 32.9 14 15.8 2.3-2.7-15.5-16.4-33.1-21.1-44.6-15.6-44.9-3-33.1 12.3-12.4 24.9 11.2 31.2 29.8 30 37.3 23.2 30.7 14.1 12.3 6.7-12 3.4-34.1 4.9-46 9.4-43.7 14.2-27 16.7-1.4 15.6 25.2 11.4 44.4 6.5 50.1 3.5 40.9 4.7 20.1 10.2-5 18.3-26 25.4-35.9 28-32 23.9-15.5 13.3 7.6-0.9 29.7-13.9 43.9-21 46-18.7 36.3-7 18.6 10.5-0.6 28.4-15 39.8-20.3 40.5-15.6 29-3.5 8.7 11.2-14.4 23.3-32.5 29-39.2 27.5-32.1 20.3-13 11.1 12.2 3.4 34.9 0.1 47.6 1.6 46 6.2 30 11.3 5 14.1" stroke="#C9A050" stroke-width="0.6" stroke-opacity="0.63"/><path d="M761.6 450l-35.8 13.1-44.7 9-38.7 5.6-20.1 5.5 4.8 9.8 27.4 17 40.1 24.7 38.9 28.8 24.2 27 1.1 18.7-22.8 5.9-40.2-7.2-46-15.6-39-15.9-22.8-6.8-3.2 9 12.9 26.3 20.3 39 17.4 41.9 5.9 32.9-9.6 14-23.8-9.2-31.9-29.1-32.3-39.2-25.9-35.9-16.1-19.8-6.7 3.9-1.2 27.2-0.9 42.1-4.6 43.5-10 30.3-13.9 6.5-14.4-20.2-11.5-41.2-6.8-49.8-3-43.4-2.7-24.1-6.5 1.4-13.6 24.6-21.1 38.1-25.2 37.5-23.6 23.7-15.3 1.2-2.8-22 10-38.8 18-43.8 17.7-36.3 8.2-19.6-8.3 0.4-26.2 16.8-39.7 24.5-43.1 21.8-34.9 10.2-16.6-5.2 5.8-19.5 25.2-27.9 34.8-28.6 30.8-22.6 14.4-13.1-9.6-4.3-33.2 0.6-48.4 0.4-49.7-4-36.5-9.9-12.5-14.4 14.3-15.5 35.8-13.1 44.7-9 38.7-5.6 20.1-5.5-4.8-9.8-27.4-17-40.1-24.7-38.9-28.8-24.2-27-1.1-18.7 22.8-5.9 40.2 7.2 46 15.6 39 15.9 22.8 6.8 3.2-9-12.9-26.3-20.3-39-17.4-41.9-5.9-32.9 9.6-14 23.8 9.2 31.9 29.1 32.3 39.2 25.9 35.9 16.1 19.8 6.7-3.9 1.2-27.2 0.9-42.1 4.6-43.5 10-30.3 13.9-6.5 14.4 20.2 11.5 41.2 6.8 49.8 3 43.4 2.7 24.1 6.5-1.4 13.6-24.6 21.1-38.1 25.2-37.5 23.6-23.7 15.3-1.2 2.8 22-10 38.8-18 43.8-17.7 36.3-8.2 19.6 8.3-0.4 26.2-16.8 39.7-24.5 43.1-21.8 34.9-10.2 16.6 5.2-5.8 19.5-25.2 27.9-34.8 28.6-30.8 22.6-14.4 13.1 9.6 4.3 33.2-0.6 48.4-0.4 49.7 4 36.5 9.9 12.5 14.4-14.3 15.5" stroke="#F0D9A0" stroke-width="0.6" stroke-opacity="0.47"/><path d="M755.5 450l-47.2 12.3-44.6 8.1-28.4 6.2-4 8.3 20 13.9 35.7 20.8 37.9 25.6 26.1 25.3 4.3 18.9-20.4 7.5-39.9-5.4-48.3-15.1-43.6-17.4-28.3-10.9-7.9 3.2 10.4 20.1 21 34.1 20.8 39.7 10.9 33.7-4.5 17.5-20-4.4-30.2-24.9-32.5-37.2-27.3-36.5-17.2-22.9-6.6-0.1 0.7 24.1 2.8 41.8-0.3 46.8-6.1 37.1-11.5 15.4-14.2-10.9-13.1-33.8-9.3-45.4-5.3-42.2-3.8-25.2-6.2-0.3-12.3 24.2-19.6 40.5-25 43.1-25.4 31.5-19.6 9.9-8.7-14.7 3.5-34.2 12.5-42.7 14.4-38.2 7.2-23.1-7.2-3.1-24.7 14.8-38.9 24.8-44.7 24.1-39 13.6-22.9-2.5-0.9-18.5 19.8-29.4 32.2-32.5 31.9-27.7 18.6-18.3-3.6-8.1-27.3-1.3-44.4 0.3-48.7-3-38.2-9-15.9-14.7 11.2-17.4 34.8-16.2 47.2-12.3 44.6-8.1 28.4-6.2 4-8.3-20-13.9-35.7-20.8-37.9-25.6-26.1-25.3-4.3-18.9 20.4-7.5 39.9 5.4 48.3 15.1 43.6 17.4 28.3 10.9 7.9-3.2-10.4-20.1-21-34.1-20.8-39.7-10.9-33.7 4.5-17.5 20 4.4 30.2 24.9 32.5 37.2 27.3 36.5 17.2 22.9 6.6 0.1-0.7-24.1-2.8-41.8 0.3-46.8 6.1-37.1 11.5-15.4 14.2 10.9 13.1 33.8 9.3 45.4 5.3 42.2 3.8 25.2 6.2 0.3 12.3-24.2 19.6-40.5 25-43.1 25.4-31.5 19.6-9.9 8.7 14.7-3.5 34.2-12.5 42.7-14.4 38.2-7.2 23.1 7.2 3.1 24.7-14.8 38.9-24.8 44.7-24.1 39-13.6 22.9 2.5 0.9 18.5-19.8 29.4-32.2 32.5-31.9 27.7-18.6 18.3 3.6 8.1 27.3 1.3 44.4-0.3 48.7 3 38.2 9 15.9 14.7-11.2 17.4-34.8 16.2" stroke="#7A5420" stroke-width="0.6" stroke-opacity="0.39"/><path d="M706.7 450l-48.2 9.9-34.2 6.7-10.6 6.9 14.8 10.9 33.5 17 39.5 22.4 30.8 23.9 10.9 19.7-14 10.1-35.2-1.7-46.5-11.8-44.6-15.7-30.7-11.3-10.2 1.1 9.9 17.5 23 32.6 25.5 40.5 17.2 37.8 1.8 24.4-15 4-27.7-16.7-32.7-30.7-29.3-33.1-19.8-22.2-8.5-1.2 0.4 23.1 3.9 42.6 1.7 50.7-4.3 44-11.2 24.6-15.9-1.7-16.8-26.3-14.2-41.3-10.2-41.9-7.6-28-8.4-4.6-12.9 20.5-19.5 38.8-25.3 44.3-27.2 35.2-23.3 14.6-13.9-10.8-2.2-32.9 7.8-44.8 11.8-43.5 7.5-30.4-4.5-10.6-20.7 8.9-35.3 21.3-42.7 23.3-39.5 14.4-25.4-1.3-4.4-18.5 17-31.4 31.8-36.6 34.8-33.2 24.6-23.8 4.3-12.3-19.4-3.2-38.3 0.6-45.8-1.2-38.7-6.9-18.8-13.2 7.7-17.3 32.5-17.7 47.5-14.5 48.2-9.9 34.2-6.7 10.6-6.9-14.8-10.9-33.5-17-39.5-22.4-30.8-23.9-10.9-19.7 14-10.1 35.2 1.7 46.5 11.8 44.6 15.7 30.7 11.3 10.2-1.1-9.9-17.5-23-32.6-25.5-40.5-17.2-37.8-1.8-24.4 15-4 27.7 16.7 32.7 30.7 29.3 33.1 19.8 22.2 8.5 1.2-0.4-23.1-3.9-42.6-1.7-50.7 4.3-44 11.2-24.6 15.9 1.7 16.8 26.3 14.2 41.3 10.2 41.9 7.6 28 8.4 4.6 12.9-20.5 19.5-38.8 25.3-44.3 27.2-35.2 23.3-14.6 13.9 10.8 2.2 32.9-7.8 44.8-11.8 43.5-7.5 30.4 4.5 10.6 20.7-8.9 35.3-21.3 42.7-23.3 39.5-14.4 25.4 1.3 4.4 18.5-17 31.4-31.8 36.6-34.8 33.2-24.6 23.8-4.3 12.3 19.4 3.2 38.3-0.6 45.8 1.2 38.7 6.9 18.8 13.2-7.7 17.3-32.5 17.7-47.5 14.5" stroke="#C9A050" stroke-width="0.6" stroke-opacity="0.68"/><path d="M657.9 450l-35.4 8.2-13 7 13 9.6 34.2 15 43.5 20.9 38.1 23.9 19.8 22-4.9 14.8-28.2 4.2-42.6-5.8-43.9-11-32.5-8.5-12.8 1.7 8.2 17.1 23.4 32.4 28.3 42.2 21.7 42.1 6.6 31.2-11.6 12.4-26.9-8.4-34.5-24.6-33.4-29.9-25-22.5-13.2-4-2.9 19.5 2.5 40 1.7 50.6-4 46.8-11.6 29.4-17.9 3.8-20.4-22.4-19.1-40.4-15.1-44.8-11.3-34.4-10.2-12.7-12.7 12.6-18 33-23.6 41.6-26.4 35.4-24 16.7-16.3-8.7-5.3-32.4 5.3-47.2 11.1-48.9 9.4-37.7-0.3-18.1-15 2.9-29.8 18.2-38.9 23.2-38.2 16.8-26.9 2.1-7.6-15.7 13.6-30.4 30-37.7 35.6-35.9 28.1-26.8 9.7-14.6-13.8-3.5-34.7 2.4-45.4 2.3-42-2.8-25.2-10 0-15.8 25.4-18 42.9-16.3 46.6-12.1 35.4-8.2 13-7-13-9.6-34.2-15-43.5-20.9-38.1-23.9-19.8-22 4.9-14.8 28.2-4.2 42.6 5.8 43.9 11 32.5 8.5 12.8-1.7-8.2-17.1-23.4-32.4-28.3-42.2-21.7-42.1-6.6-31.2 11.6-12.4 26.9 8.4 34.5 24.6 33.4 29.9 25 22.5 13.2 4 2.9-19.5-2.5-40-1.7-50.6 4-46.8 11.6-29.4 17.9-3.8 20.4 22.4 19.1 40.4 15.1 44.8 11.3 34.4 10.2 12.7 12.7-12.6 18-33 23.6-41.6 26.4-35.4 24-16.7 16.3 8.7 5.3 32.4-5.3 47.2-11.1 48.9-9.4 37.7 0.3 18.1 15-2.9 29.8-18.2 38.9-23.2 38.2-16.8 26.9-2.1 7.6 15.7-13.6 30.4-30 37.7-35.6 35.9-28.1 26.8-9.7 14.6 13.8 3.5 34.7-2.4 45.4-2.3 42 2.8 25.2 10 0 15.8-25.4 18-42.9 16.3-46.6 12.1" stroke="#F0D9A0" stroke-width="0.6" stroke-opacity="0.4"/><path d="M651.8 450l-15 8.9 10.9 10 33.6 14.3 45.6 20.2 43.2 24.3 26.9 24.2 2.1 18.9-22.9 9.8-40.5-0.1-45.4-6.6-36.9-6.5-18.6 1.4 3 14.9 20.2 29.9 27.6 40.6 23.2 42.6 9 34-9.9 16.9-27-4-37.2-21.7-38.3-30.2-30.8-26-18.7-10.3-6.6 11.9 1 33.3 2.4 46-2.2 45.5-10 31-17.3 6.5-21.5-20-21.2-40.4-17.6-48.1-12.9-40.7-10-20.7-10.5 4.7-14.3 27.4-19.4 39.4-23 37-22.4 20.9-16.6-3.6-6.8-28.3 3.4-45.5 10.4-49.9 10.4-40.9 2.9-21.8-10.6 0.3-25.4 18.2-36.3 26.4-38.4 22.5-30.1 9.1-13.2-9.1 7.1-25.7 24.4-35.4 32.3-35.9 27.5-28 11.2-15.6-11.9-3.3-33.8 4.6-47.4 5.9-47.6 1.4-33.7-6.5-10-14.2 16-18.5 35.9-18.7 43-15.4 35.1-11.3 15-8.9-10.9-10-33.6-14.3-45.6-20.2-43.2-24.3-26.9-24.2-2.1-18.9 22.9-9.8 40.5 0.1 45.4 6.6 36.9 6.5 18.6-1.4-3-14.9-20.2-29.9-27.6-40.6-23.2-42.6-9-34 9.9-16.9 27 4 37.2 21.7 38.3 30.2 30.8 26 18.7 10.3 6.6-11.9-1-33.3-2.4-46 2.2-45.5 10-31 17.3-6.5 21.5 20 21.2 40.4 17.6 48.1 12.9 40.7 10 20.7 10.5-4.7 14.3-27.4 19.4-39.4 23-37 22.4-20.9 16.6 3.6 6.8 28.3-3.4 45.5-10.4 49.9-10.4 40.9-2.9 21.8 10.6-0.3 25.4-18.2 36.3-26.4 38.4-22.5 30.1-9.1 13.2 9.1-7.1 25.7-24.4 35.4-32.3 35.9-27.5 28-11.2 15.6 11.9 3.3 33.8-4.6 47.4-5.9 47.6-1.4 33.7 6.5 10 14.2-16 18.5-35.9 18.7-43 15.4-35.1 11.3" stroke="#7A5420" stroke-width="0.6" stroke-opacity="0.52"/><path d="M662.6 450l4.5 10.3 28.3 13.1 43 18.1 43.6 22.5 29.7 23.7 5.8 20.2-20.3 12.3-40.7 2.5-48.8-5-43.2-7.1-26.1-1.8-4.1 9.7 15.4 23.7 25.8 35.1 24.3 39.1 11.9 33.1-6.7 17.9-25.1-2.1-37.6-20.7-40.5-31.4-34.2-30.2-21.8-17-8.1 4.1 2 26.2 5.5 41.6 2.5 44.5-5 33.4-13.4 11.3-19.1-15-20.6-36.8-17.8-47.2-13-42.6-8.8-24.7-7.7 0.9-10.2 25.3-14.8 40.7-19.3 42-20.4 28.9-17 5.7-9.1-19.7 0.3-39.3 7.6-46.9 9.2-40.5 3.4-22.9-8.5-0.4-23.2 19.5-35.3 30.3-39.8 28.9-34.6 16.7-19.9-1.8-0.6-20.3 17.3-32.8 27.4-36.1 25.7-30.1 12.1-18-9.5-4.9-31.9 4.8-47.4 7.8-50.5 4.1-39.4-4-17.3-13 9.1-19.3 31.3-21.4 42-19.1 37.9-14.8 20.5-11.1-4.5-10.3-28.3-13.1-43-18.1-43.6-22.5-29.7-23.7-5.8-20.2 20.3-12.3 40.7-2.5 48.8 5 43.2 7.1 26.1 1.8 4.1-9.7-15.4-23.7-25.8-35.1-24.3-39.1-11.9-33.1 6.7-17.9 25.1 2.1 37.6 20.7 40.5 31.4 34.2 30.2 21.8 17 8.1-4.1-2-26.2-5.5-41.6-2.5-44.5 5-33.4 13.4-11.3 19.1 15 20.6 36.8 17.8 47.2 13 42.6 8.8 24.7 7.7-0.9 10.2-25.3 14.8-40.7 19.3-42 20.4-28.9 17-5.7 9.1 19.7-0.3 39.3-7.6 46.9-9.2 40.5-3.4 22.9 8.5 0.4 23.2-19.5 35.3-30.3 39.8-28.9 34.6-16.7 19.9 1.8 0.6 20.3-17.3 32.8-27.4 36.1-25.7 30.1-12.1 18 9.5 4.9 31.9-4.8 47.4-7.8 50.5-4.1 39.4 4 17.3 13-9.1 19.3-31.3 21.4-42 19.1-37.9 14.8-20.5 11.1" stroke="#C9A050" stroke-width="0.6" stroke-opacity="0.69"/><path d="M641.1 450l20.4 10.1 38 13.7 42.2 18.1 31.4 20.4 9.4 18.4-17 11.9-39.2 3-50.1-5-47-8.8-31.4-5.6-9 3.9 12.6 17.2 26.2 29.2 28.1 35.3 18 32 0 19.5-19.2 1.1-33.8-17.4-39-29.6-34.5-30.9-22.3-20-7.7-0.2 4.3 22.5 10.2 40 8.5 46.5 1.2 38.9-8.1 19.4-15.9-6-19.5-29-18.2-42.2-13.9-40.9-9.1-25.4-6.7-0.8-7.8 24.7-11.9 42.7-16.8 47.3-19.6 37-18.2 15.1-12.3-11-4.1-33.1 3.5-44.1 6.5-41.2 2.9-25.7-7.3-3.7-20.9 17.6-33.3 30.7-39.7 32-36.7 21.4-24.4 2.8-6-17.2 12.6-32.3 24.9-38.3 26.5-34.3 15.9-22.9-3.5-8.8-25.7 2.7-42.6 8-48.5 6-40.3-1.6-20.1-11.3 6.1-19.1 30-22.8 43.7-21.5 43.2-17 28.4-12.1 4.4-9.3-20.4-10.1-38-13.7-42.2-18.1-31.4-20.4-9.4-18.4 17-11.9 39.2-3 50.1 5 47 8.8 31.4 5.6 9-3.9-12.6-17.2-26.2-29.2-28.1-35.3-18-32 0-19.5 19.2-1.1 33.8 17.4 39 29.6 34.5 30.9 22.3 20 7.7 0.2-4.3-22.5-10.2-40-8.5-46.5-1.2-38.9 8.1-19.4 15.9 6 19.5 29 18.2 42.2 13.9 40.9 9.1 25.4 6.7 0.8 7.8-24.7 11.9-42.7 16.8-47.3 19.6-37 18.2-15.1 12.3 11 4.1 33.1-3.5 44.1-6.5 41.2-2.9 25.7 7.3 3.7 20.9-17.6 33.3-30.7 39.7-32 36.7-21.4 24.4-2.8 6 17.2-12.6 32.3-24.9 38.3-26.5 34.3-15.9 22.9 3.5 8.8 25.7-2.7 42.6-8 48.5-6 40.3 1.6 20.1 11.3-6.1 19.1-30 22.8-43.7 21.5-43.2 17-28.4 12.1-4.4 9.3" stroke="#F0D9A0" stroke-width="0.6" stroke-opacity="0.69"/><path d="M603.4 450l35.2 9 43.1 13.1 36.1 16.4 16.4 16.3-9.5 11.8-33.1 4.3-46.8-3.5-46.6-8.1-33-6.7-10.8 1.2 12.3 13.5 28.7 26.1 33.5 34 25.8 33.6 8.6 23.9-11.6 7.4-28.6-10.7-36.7-24.1-34.4-27.8-23.6-19.6-8.7-1.6 4.8 20.6 12.5 39.7 12.4 49 5.6 44.5-4.7 27.6-14.3 2.8-20.2-21.4-20.7-37.5-17.2-39.8-12-27.7-8.2-4.9-7.7 20.7-10.6 40.7-15.3 48.3-18.9 40.7-19.2 20.4-15.1-6.1-7.7-30.3-0.1-44.8 4.6-45.3 3.1-32.3-4.5-11-16.7 11.5-28.8 27.2-36.4 31.4-35.4 23.1-25.2 5.5-8.2-15.3 10.7-32.5 24.7-40.9 29.1-38.8 21.6-28 4.2-13-17.3 0.6-35.8 8.5-44.5 8.7-39.6 2.2-22.1-7.6 2.9-16.8 27.5-22 43.6-22 46.1-17.8 33.8-12.1 11-7.7-14.9-6.6-35.2-9-43.1-13.1-36.1-16.4-16.4-16.3 9.5-11.8 33.1-4.3 46.8 3.5 46.6 8.1 33 6.7 10.8-1.2-12.3-13.5-28.7-26.1-33.5-34-25.8-33.6-8.6-23.9 11.6-7.4 28.6 10.7 36.7 24.1 34.4 27.8 23.6 19.6 8.7 1.6-4.8-20.6-12.5-39.7-12.4-49-5.6-44.5 4.7-27.6 14.3-2.8 20.2 21.4 20.7 37.5 17.2 39.8 12 27.7 8.2 4.9 7.7-20.7 10.6-40.7 15.3-48.3 18.9-40.7 19.2-20.4 15.1 6.1 7.7 30.3 0.1 44.8-4.6 45.3-3.1 32.3 4.5 11 16.7-11.5 28.8-27.2 36.4-31.4 35.4-23.1 25.2-5.5 8.2 15.3-10.7 32.5-24.7 40.9-29.1 38.8-21.6 28-4.2 13 17.3-0.6 35.8-8.5 44.5-8.7 39.6-2.2 22.1 7.6-2.9 16.8-27.5 22-43.6 22-46.1 17.8-33.8 12.1-11 7.7 14.9 6.6" stroke="#7A5420" stroke-width="0.6" stroke-opacity="0.57"/><path d="M619 450l46.7 10.3 43 14.4 25.7 16.2 0.3 14-24.8 8.1-41.6 1.1-44.8-4.1-34-4.2-13.2 1.9 10.6 12.9 29 25.2 36.6 34.3 31 36.1 14.7 29-6.5 14.3-25.6-3.5-36.9-18.1-37.6-24.4-28.3-19.4-13.5-4 1.2 17.1 10.9 36.7 12.8 48 6.9 46.4-3.5 31.7-14.6 8-22.2-17.2-24.6-36-21.8-42-16.2-33.3-10.9-12.8-8.3 12.6-9.5 34.3-13.3 44.9-17.2 40.6-18.6 22.5-16.1-3.4-9.8-29.1-2.2-46.3 3.5-50 4.3-39.4-1.2-18.7-11.6 4.8-23.3 23.3-31.9 30.9-33 25.6-25.3 9.6-10.2-11.2 7.9-30 23-40.8 29.5-40.8 24.6-31.1 9.3-15.6-11.7-0.1-31.6 10.1-43 12.6-41.8 7.5-27.4-2.6-4.3-13 20.4-20.2 38.5-22.2 43.9-19 34.5-13.2 13.3-7.8-12.9-5.1-35.3-6.4-46.7-10.3-43-14.4-25.7-16.2-0.3-14 24.8-8.1 41.6-1.1 44.8 4.1 34 4.2 13.2-1.9-10.6-12.9-29-25.2-36.6-34.3-31-36.1-14.7-29 6.5-14.3 25.6 3.5 36.9 18.1 37.6 24.4 28.3 19.4 13.5 4-1.2-17.1-10.9-36.7-12.8-48-6.9-46.4 3.5-31.7 14.6-8 22.2 17.2 24.6 36 21.8 42 16.2 33.3 10.9 12.8 8.3-12.6 9.5-34.3 13.3-44.9 17.2-40.6 18.6-22.5 16.1 3.4 9.8 29.1 2.2 46.3-3.5 50-4.3 39.4 1.2 18.7 11.6-4.8 23.3-23.3 31.9-30.9 33-25.6 25.3-9.6 10.2 11.2-7.9 30-23 40.8-29.5 40.8-24.6 31.1-9.3 15.6 11.7 0.1 31.6-10.1 43-12.6 41.8-7.5 27.4 2.6 4.3 13-20.4 20.2-38.5 22.2-43.9 19-34.5 13.2-13.3 7.8 12.9 5.1 35.3 6.4" stroke="#C9A050" stroke-width="0.6" stroke-opacity="0.48"/><circle cx="450" cy="450" r="405.7" fill="none" stroke="#7A5420" stroke-width="0.8" stroke-opacity="0.42"/></g><g><path d="M619 450l-27.1 50-27.9 49-28.4 47-28.9 43.8-29.2 39.9-29.3 35-29.3 29.5-29.2 23.3-28.8 16.7-28.4 9.6-27.7 2.5-27-4.9-26.1-12-25.1-18.9-23.8-25.5-22.6-31.4-21.2-36.7-19.6-41.3-18-45-16.2-47.7-14.5-49.5-12.6-50.1-10.6-49.8-8.6-48.5-6.5-46-4.5-42.6-2.4-38.3-0.2-33.3 1.9-27.5 4-21.2 6.2-14.3 8.1-7.2 10.2 0 12.2 7.2 14.1 14.3 15.8 21.2 17.7 27.5 19.3 33.3 20.8 38.3 22.3 42.6 23.6 46 24.8 48.5 25.9 49.8 26.8 50.1 27.6 49.5 28.3 47.7 28.7 45 29.1 41.3 29.3 36.7 29.4 31.4 29.2 25.5 28.9 18.9 28.6 12 28 4.9 27.2-2.5 26.4-9.6 25.4-16.7 24.3-23.3 23-29.5 21.7-35 20.1-39.9 18.6-43.8 16.8-47 15.1-49 13.2-50 11.3-50 9.2-49 7.3-47 5.1-43.8 3.1-39.9 0.9-35-1.2-29.5-3.3-23.3-5.4-16.7-7.5-9.6-9.5-2.5-11.5 4.9-13.5 12-15.3 18.9-17 25.5-18.8 31.4-20.3 36.7-21.8 41.3-23.2 45-24.4 47.7-25.6 49.5-26.5 50.1-27.3 49.8-28.1 48.5-28.6 46-29 42.6-29.2 38.3-29.4 33.3-29.3 27.5-29 21.2-28.7 14.3-28.2 7.2-27.5 0-26.7-7.2-25.8-14.3-24.7-21.2-23.4-27.5-22.1-33.3-20.7-38.3-19.1-42.6-17.4-46-15.7-48.5-13.8-49.8-11.9-50.1-10-49.5-7.9-47.7-5.9-45-3.7-41.3-1.7-36.7 0.5-31.4 2.6-25.5 4.8-18.9 6.8-12 8.8-4.9 10.9 2.5 12.8 9.6 14.7 16.7 16.4 23.3 18.2 29.5 19.9 35 21.3 39.9 22.7 43.8 24 47 25.2 49 26.2 50 27.1 50 27.9 49 28.4 47 28.9 43.8 29.2 39.9 29.3 35 29.3 29.5 29.2 23.3 28.8 16.7 28.4 9.6 27.7 2.5 27-4.9 26.1-12 25.1-18.9 23.8-25.5 22.6-31.4 21.2-36.7 19.6-41.3 18-45 16.2-47.7 14.5-49.5 12.6-50.1 10.6-49.8 8.6-48.5 6.5-46 4.5-42.6 2.4-38.3 0.2-33.3-1.9-27.5-4-21.2-6.2-14.3-8.1-7.2-10.2 0-12.2 7.2-14.1 14.3-15.8 21.2-17.7 27.5-19.3 33.3-20.8 38.3-22.3 42.6-23.6 46-24.8 48.5-25.9 49.8-26.8 50.1-27.6 49.5-28.3 47.7-28.7 45-29.1 41.3-29.3 36.7-29.4 31.4-29.2 25.5-28.9 18.9-28.6 12-28 4.9-27.2-2.5-26.4-9.6-25.4-16.7-24.3-23.3-23-29.5-21.7-35-20.1-39.9-18.6-43.8-16.8-47-15.1-49-13.2-50-11.3-50-9.2-49-7.3-47-5.1-43.8-3.1-39.9-0.9-35 1.2-29.5 3.3-23.3 5.4-16.7 7.5-9.6 9.5-2.5 11.5 4.9 13.5 12 15.3 18.9 17 25.5 18.8 31.4 20.3 36.7 21.8 41.3 23.2 45 24.4 47.7 25.6 49.5 26.5 50.1 27.3 49.8 28.1 48.5 28.6 46 29 42.6 29.2 38.3 29.4 33.3 29.3 27.5 29 21.2 28.7 14.3 28.2 7.2 27.5 0 26.7-7.2 25.8-14.3 24.7-21.2 23.4-27.5 22.1-33.3 20.7-38.3 19.1-42.6 17.4-46 15.7-48.5 13.8-49.8 11.9-50.1 10-49.5 7.9-47.7 5.9-45 3.7-41.3 1.7-36.7-0.5-31.4-2.6-25.5-4.8-18.9-6.8-12-8.8-4.9-10.9 2.5-12.8 9.6-14.7 16.7-16.4 23.3-18.2 29.5-19.9 35-21.3 39.9-22.7 43.8-24 47-25.2 49-26.2 50Z" stroke="#7A5420" stroke-width="0.6" stroke-opacity="0.2"/><path d="M677.4 450l19.4 62.7 18.1 61.4 16.8 58.7 15.2 55 13.7 49.9 12.1 43.9 10.3 37 8.6 29.2 6.9 20.9 5 12 3.1 3.1 1.3-6.1-0.7-15-2.5-23.7-4.3-31.9-6.2-39.4-8-46-9.8-51.7-11.5-56.4-13.1-59.8-14.8-61.9-16.2-62.9-17.7-62.4-19-60.6-20.2-57.6-21.3-53.4-22.4-48.1-23.2-41.7-24-34.4-24.7-26.5-25.2-18-25.6-9.1-25.8 0-25.9 9.1-25.9 18-25.8 26.5-25.4 34.4-25.1 41.7-24.4 48.1-23.8 53.4-23 57.6-22 60.6-21 62.4-19.9 62.9-18.5 61.9-17.2 59.8-15.8 56.4-14.2 51.7-12.6 46-11 39.4-9.2 31.9-7.4 23.7-5.6 15-3.8 6.1-1.8-3.1 0-12 1.8-20.9 3.8-29.2 5.6-37 7.4-43.9 9.2-49.9 10.9-55 12.6-58.7 14.2-61.4 15.7-62.7 17.2-62.7 18.6-61.4 19.8-58.7 21-55 22-49.9 23-43.9 23.8-37 24.4-29.2 25.1-20.9 25.4-12 25.8-3.1 25.9 6.1 25.9 15 25.8 23.7 25.6 31.9 25.2 39.4 24.7 46 24 51.7 23.2 56.4 22.4 59.8 21.4 61.9 20.2 62.9 19 62.4 17.7 60.6 16.2 57.6 14.7 53.4 13.2 48.1 11.5 41.7 9.8 34.4 8 26.5 6.2 18 4.4 9.1 2.5 0 0.7-9.1-1.3-18-3.1-26.5-5-34.4-6.8-41.7-8.6-48.1-10.3-53.4-12.1-57.6-13.7-60.6-15.2-62.4-16.7-62.9-18.2-61.9-19.4-59.8-20.6-56.4-21.7-51.7-22.6-46-23.6-39.4-24.2-31.9-24.9-23.7-25.3-15-25.7-6.1-25.8 3.1-26 12-25.8 20.9-25.7 29.2-25.3 37-24.9 43.9-24.3 49.9-23.5 55-22.7 58.7-21.7 61.4-20.6 62.7-19.4 62.7-18.1 61.4-16.8 58.7-15.2 55-13.7 49.9-12.1 43.9-10.3 37-8.6 29.2-6.9 20.9-5 12-3.1 3.1-1.3-6.1 0.7-15 2.5-23.7 4.3-31.9 6.2-39.4 8-46 9.8-51.7 11.5-56.4 13.1-59.8 14.8-61.9 16.2-62.9 17.7-62.4 19-60.6 20.2-57.6 21.3-53.4 22.4-48.1 23.2-41.7 24-34.4 24.7-26.5 25.2-18 25.6-9.1 25.8 0 25.9 9.1 25.9 18 25.8 26.5 25.4 34.4 25.1 41.7 24.4 48.1 23.8 53.4 23 57.6 22 60.6 21 62.4 19.9 62.9 18.5 61.9 17.2 59.8 15.8 56.4 14.2 51.7 12.6 46 11 39.4 9.2 31.9 7.4 23.7 5.6 15 3.8 6.1 1.8-3.1 0-12-1.8-20.9-3.8-29.2-5.6-37-7.4-43.9-9.2-49.9-10.9-55-12.6-58.7-14.2-61.4-15.7-62.7-17.2-62.7-18.6-61.4-19.8-58.7-21-55-22-49.9-23-43.9-23.8-37-24.4-29.2-25.1-20.9-25.4-12-25.8-3.1-25.9 6.1-25.9 15-25.8 23.7-25.6 31.9-25.2 39.4-24.7 46-24 51.7-23.2 56.4-22.4 59.8-21.4 61.9-20.2 62.9-19 62.4-17.7 60.6-16.2 57.6-14.7 53.4-13.2 48.1-11.5 41.7-9.8 34.4-8 26.5-6.2 18-4.4 9.1-2.5 0-0.7-9.1 1.3-18 3.1-26.5 5-34.4 6.8-41.7 8.6-48.1 10.3-53.4 12.1-57.6 13.7-60.6 15.2-62.4 16.7-62.9 18.2-61.9 19.4-59.8 20.6-56.4 21.7-51.7 22.6-46 23.6-39.4 24.2-31.9 24.9-23.7 25.3-15 25.7-6.1 25.8 3.1 26 12 25.8 20.9 25.7 29.2 25.3 37 24.9 43.9 24.3 49.9 23.5 55 22.7 58.7 21.7 61.4 20.6 62.7Z" stroke="#C9A050" stroke-width="0.6" stroke-opacity="0.32"/><path d="M544.1 450l43.5 81.2 41.4 77.4 38.9 70 35.6 59.1 32 45.6 27.8 29.9 23.2 12.8 18.3-4.9 13.2-22.4 7.8-38.9 2.3-53.4-3.2-65.6-8.7-74.5-14-80-19.2-81.7-24-79.5-28.5-73.7-32.6-64.4-36.2-51.9-39.3-37.1-41.8-20.5-43.8-3-44.9 14.8-45.6 31.7-45.6 47.2-44.8 60.5-43.5 71-41.4 78-38.9 81.4-35.6 81-32 76.7-27.8 68.9-23.2 57.8-18.3 44-13.2 28-7.8 10.8-2.3-6.9 3.2-24.3 8.7-40.5 14-55 19.2-66.6 24-75.4 28.5-80.3 32.6-81.7 36.2-79.1 39.3-72.8 41.8-63.1 43.8-50.4 44.9-35.3 45.6-18.6 45.6-1 44.8 16.7 43.5 33.5 41.4 48.8 38.9 61.8 35.6 71.9 32 78.6 27.8 81.6 23.2 80.7 18.3 76 13.2 67.9 7.8 56.3 2.3 42.3-3.2 26.2-8.7 8.9-14-8.9-19.2-26.2-24-42.3-28.5-56.3-32.6-67.9-36.2-76-39.3-80.7-41.8-81.6-43.8-78.6-44.9-71.9-45.6-61.8-45.6-48.8-44.8-33.5-43.5-16.7-41.4 1-38.9 18.6-35.6 35.3-32 50.4-27.8 63.1-23.2 72.8-18.3 79.1-13.2 81.7-7.8 80.3-2.3 75.4 3.2 66.6 8.7 55 14 40.5 19.2 24.3 24 6.9 28.5-10.8 32.6-28 36.2-44 39.3-57.8 41.8-68.9 43.8-76.7 44.9-81 45.6-81.4 45.6-78 44.8-71 43.5-60.5 41.4-47.2 38.9-31.7 35.6-14.8 32 3 27.8 20.5 23.2 37.1 18.3 51.9 13.2 64.4 7.8 73.7 2.3 79.5-3.2 81.7-8.7 80-14 74.5-19.2 65.6-24 53.4-28.5 38.9-32.6 22.4-36.2 4.9-39.3-12.8-41.8-29.9-43.8-45.6-44.9-59.1-45.6-70-45.6-77.4-44.8-81.2-43.5-81.2-41.4-77.4-38.9-70-35.6-59.1-32-45.6-27.8-29.9-23.2-12.8-18.3 4.9-13.2 22.4-7.8 38.9-2.3 53.4 3.2 65.6 8.7 74.5 14 80 19.2 81.7 24 79.5 28.5 73.7 32.6 64.4 36.2 51.9 39.3 37.1 41.8 20.5 43.8 3 44.9-14.8 45.6-31.7 45.6-47.2 44.8-60.5 43.5-71 41.4-78 38.9-81.4 35.6-81 32-76.7 27.8-68.9 23.2-57.8 18.3-44 13.2-28 7.8-10.8 2.3 6.9-3.2 24.3-8.7 40.5-14 55-19.2 66.6-24 75.4-28.5 80.3-32.6 81.7-36.2 79.1-39.3 72.8-41.8 63.1-43.8 50.4-44.9 35.3-45.6 18.6-45.6 1-44.8-16.7-43.5-33.5-41.4-48.8-38.9-61.8-35.6-71.9-32-78.6-27.8-81.6-23.2-80.7-18.3-76-13.2-67.9-7.8-56.3-2.3-42.3 3.2-26.2 8.7-8.9 14 8.9 19.2 26.2 24 42.3 28.5 56.3 32.6 67.9 36.2 76 39.3 80.7 41.8 81.6 43.8 78.6 44.9 71.9 45.6 61.8 45.6 48.8 44.8 33.5 43.5 16.7 41.4-1 38.9-18.6 35.6-35.3 32-50.4 27.8-63.1 23.2-72.8 18.3-79.1 13.2-81.7 7.8-80.3 2.3-75.4-3.2-66.6-8.7-55-14-40.5-19.2-24.3-24-6.9-28.5 10.8-32.6 28-36.2 44-39.3 57.8-41.8 68.9-43.8 76.7-44.9 81-45.6 81.4-45.6 78-44.8 71-43.5 60.5-41.4 47.2-38.9 31.7-35.6 14.8-32-3-27.8-20.5-23.2-37.1-18.3-51.9-13.2-64.4-7.8-73.7-2.3-79.5 3.2-81.7 8.7-80 14-74.5 19.2-65.6 24-53.4 28.5-38.9 32.6-22.4 36.2-4.9 39.3 12.8 41.8 29.9 43.8 45.6 44.9 59.1 45.6 70 45.6 77.4 44.8 81.2Z" stroke="#F0D9A0" stroke-width="0.6" stroke-opacity="0.34"/></g></svg>