<svg xmlns="http://www.w3.org/2000/svg" viewBox="0 0 900 675" width="900" height="675" role="img" aria-label="Banda en V"><title>Banda en V</title><defs><linearGradient id="steel" x1="0" y1="0" x2="0.6" y2="1"><stop offset="0" stop-color="#E4E7E2"/><stop offset=".38" stop-color="#B7BDB8"/><stop offset=".62" stop-color="#8E969A"/><stop offset="1" stop-color="#C3C8C3"/></linearGradient><linearGradient id="steel2" x1="0" y1="0" x2="1" y2="1"><stop offset="0" stop-color="#CFD4CF"/><stop offset=".5" stop-color="#9BA3A6"/><stop offset="1" stop-color="#D8DCD7"/></linearGradient><linearGradient id="rubber" x1="0" y1="0" x2="0.4" y2="1"><stop offset="0" stop-color="#4A4F55"/><stop offset=".5" stop-color="#26292D"/><stop offset="1" stop-color="#3C4147"/></linearGradient><linearGradient id="ptfe" x1="0" y1="0" x2="0.3" y2="1"><stop offset="0" stop-color="#FFFFFF"/><stop offset=".55" stop-color="#E9EBE6"/><stop offset="1" stop-color="#D3D7D1"/></linearGradient><linearGradient id="brass" x1="0" y1="0" x2="0.5" y2="1"><stop offset="0" stop-color="#E8D9A8"/><stop offset=".5" stop-color="#B9974F"/><stop offset="1" stop-color="#DCC98E"/></linearGradient><linearGradient id="cloth" x1="0" y1="0" x2="0.4" y2="1"><stop offset="0" stop-color="#3E5A78"/><stop offset=".55" stop-color="#27405A"/><stop offset="1" stop-color="#37536F"/></linearGradient><pattern id="hatch" width="7" height="7" patternUnits="userSpaceOnUse" patternTransform="rotate(45)"><line x1="0" y1="0" x2="0" y2="7" stroke="#5A6470" stroke-width="1.1" opacity=".55"/></pattern><pattern id="grid" width="18" height="18" patternUnits="userSpaceOnUse"><path d="M18 0H0v18" fill="none" stroke="#1C1F22" stroke-width="1" opacity=".055"/></pattern></defs><rect width="900" height="675" fill="#EFF0EC"/><rect width="900" height="675" fill="url(#grid)"/><g stroke="#5A6470" stroke-width="1.3" opacity=".55"><path d="M26 46V26h20"/><path d="M854 26h20v20"/><path d="M26 629V649h20"/><path d="M854 649h20v-20"/></g><g><ellipse cx="430" cy="300" rx="228" ry="150" fill="none" stroke="url(#rubber)" stroke-width="42"/><ellipse cx="430" cy="300" rx="249" ry="171" fill="none" stroke="#1C1F22" stroke-width="1.8"/><ellipse cx="430" cy="300" rx="207" ry="129" fill="none" stroke="#1C1F22" stroke-width="1.8"/><ellipse cx="430" cy="300" rx="212" ry="134" fill="none" stroke="#5A6470" stroke-width="12" stroke-dasharray="7 11" opacity=".6"/><path d="M654 106h88l-22 56h-44Z" fill="url(#rubber)" stroke="#1C1F22" stroke-width="2"/><path d="M654 106h88l-22 56h-44Z" fill="url(#hatch)" opacity=".38"/><circle cx="698" cy="134" r="62" fill="none" stroke="#E8590C" stroke-width="1.3" stroke-dasharray="5 5"/></g><g><line x1="658" y1="300" x2="680" y2="420" stroke="#E8590C" stroke-width="1.2"/><circle cx="658" cy="300" r="3.2" fill="#E8590C"/><line x1="680" y1="420" x2="724" y2="420" stroke="#E8590C" stroke-width="1.2"/><text x="730" y="424" text-anchor="start" font-family="Inter, Helvetica, Arial, sans-serif" font-size="11.5" letter-spacing="1.4" fill="#5A6470">PERFIL EN V</text></g><g stroke="#5A6470" stroke-width="1.2" fill="none"><line x1="181" y1="507" x2="181" y2="525"/><line x1="679" y1="507" x2="679" y2="525"/><line x1="181" y1="516" x2="679" y2="516"/><path d="M190 512L181 516l9 4"/><path d="M670 512L679 516l-9 4"/></g><rect x="390" y="504" width="80" height="22" fill="#EFF0EC"/><text x="430" y="520" text-anchor="middle" font-family="Inter, Helvetica, Arial, sans-serif" font-size="13" fill="#1C1F22">Longitud primitiva</text><g font-family="Inter, Helvetica, Arial, sans-serif"><line x1="60" y1="617" x2="840" y2="617" stroke="#C9CDC4" stroke-width="1.4"/><rect x="60" y="629" width="4" height="18" fill="#E8590C"/><text x="76" y="643" font-size="17" font-weight="700" fill="#1C1F22" letter-spacing="1.6">BV-11</text><text x="840" y="643" text-anchor="end" font-size="11.5" fill="#5A6470" letter-spacing="3">FRONTAL + PERFIL</text></g></svg>