<svg xmlns="http://www.w3.org/2000/svg" viewBox="0 0 900 675" width="900" height="675" role="img" aria-label="Empaque de brida"><title>Empaque de brida</title><defs><linearGradient id="steel" x1="0" y1="0" x2="0.6" y2="1"><stop offset="0" stop-color="#E4E7E2"/><stop offset=".38" stop-color="#B7BDB8"/><stop offset=".62" stop-color="#8E969A"/><stop offset="1" stop-color="#C3C8C3"/></linearGradient><linearGradient id="steel2" x1="0" y1="0" x2="1" y2="1"><stop offset="0" stop-color="#CFD4CF"/><stop offset=".5" stop-color="#9BA3A6"/><stop offset="1" stop-color="#D8DCD7"/></linearGradient><linearGradient id="rubber" x1="0" y1="0" x2="0.4" y2="1"><stop offset="0" stop-color="#4A4F55"/><stop offset=".5" stop-color="#26292D"/><stop offset="1" stop-color="#3C4147"/></linearGradient><linearGradient id="ptfe" x1="0" y1="0" x2="0.3" y2="1"><stop offset="0" stop-color="#FFFFFF"/><stop offset=".55" stop-color="#E9EBE6"/><stop offset="1" stop-color="#D3D7D1"/></linearGradient><linearGradient id="brass" x1="0" y1="0" x2="0.5" y2="1"><stop offset="0" stop-color="#E8D9A8"/><stop offset=".5" stop-color="#B9974F"/><stop offset="1" stop-color="#DCC98E"/></linearGradient><linearGradient id="cloth" x1="0" y1="0" x2="0.4" y2="1"><stop offset="0" stop-color="#3E5A78"/><stop offset=".55" stop-color="#27405A"/><stop offset="1" stop-color="#37536F"/></linearGradient><pattern id="hatch" width="7" height="7" patternUnits="userSpaceOnUse" patternTransform="rotate(45)"><line x1="0" y1="0" x2="0" y2="7" stroke="#5A6470" stroke-width="1.1" opacity=".55"/></pattern><pattern id="grid" width="18" height="18" patternUnits="userSpaceOnUse"><path d="M18 0H0v18" fill="none" stroke="#1C1F22" stroke-width="1" opacity=".055"/></pattern></defs><rect width="900" height="675" fill="#EFF0EC"/><rect width="900" height="675" fill="url(#grid)"/><g stroke="#5A6470" stroke-width="1.3" opacity=".55"><path d="M26 46V26h20"/><path d="M854 26h20v20"/><path d="M26 629V649h20"/><path d="M854 649h20v-20"/></g><g><circle cx="430" cy="300" r="196" fill="url(#ptfe)" stroke="#1C1F22" stroke-width="2.4"/><circle cx="430" cy="300" r="106" fill="#EFF0EC" stroke="#1C1F22" stroke-width="2.2"/><circle cx="430" cy="300" r="152" fill="none" stroke="#5A6470" stroke-width="1" stroke-dasharray="10 6"/><circle cx="570.4" cy="358.2" r="19" fill="#EFF0EC" stroke="#1C1F22" stroke-width="1.8"/><path d="M546.4 358.2h48M570.4 334.2v48" stroke="#5A6470" stroke-width=".9"/><circle cx="488.2" cy="440.4" r="19" fill="#EFF0EC" stroke="#1C1F22" stroke-width="1.8"/><path d="M464.2 440.4h48M488.2 416.4v48" stroke="#5A6470" stroke-width=".9"/><circle cx="371.8" cy="440.4" r="19" fill="#EFF0EC" stroke="#1C1F22" stroke-width="1.8"/><path d="M347.8 440.4h48M371.8 416.4v48" stroke="#5A6470" stroke-width=".9"/><circle cx="289.6" cy="358.2" r="19" fill="#EFF0EC" stroke="#1C1F22" stroke-width="1.8"/><path d="M265.6 358.2h48M289.6 334.2v48" stroke="#5A6470" stroke-width=".9"/><circle cx="289.6" cy="241.8" r="19" fill="#EFF0EC" stroke="#1C1F22" stroke-width="1.8"/><path d="M265.6 241.8h48M289.6 217.8v48" stroke="#5A6470" stroke-width=".9"/><circle cx="371.8" cy="159.6" r="19" fill="#EFF0EC" stroke="#1C1F22" stroke-width="1.8"/><path d="M347.8 159.6h48M371.8 135.6v48" stroke="#5A6470" stroke-width=".9"/><circle cx="488.2" cy="159.6" r="19" fill="#EFF0EC" stroke="#1C1F22" stroke-width="1.8"/><path d="M464.2 159.6h48M488.2 135.6v48" stroke="#5A6470" stroke-width=".9"/><circle cx="570.4" cy="241.8" r="19" fill="#EFF0EC" stroke="#1C1F22" stroke-width="1.8"/><path d="M546.4 241.8h48M570.4 217.8v48" stroke="#5A6470" stroke-width=".9"/><g stroke="#5A6470" stroke-width="1" stroke-dasharray="16 5 3 5"><line x1="194" y1="300" x2="666" y2="300"/><line x1="430" y1="64" x2="430" y2="536"/></g></g><g><line x1="537" y1="193" x2="640" y2="122" stroke="#E8590C" stroke-width="1.2"/><circle cx="537" cy="193" r="3.2" fill="#E8590C"/><line x1="640" y1="122" x2="684" y2="122" stroke="#E8590C" stroke-width="1.2"/><text x="690" y="126" text-anchor="start" font-family="Inter, Helvetica, Arial, sans-serif" font-size="11.5" letter-spacing="1.4" fill="#5A6470">DIÁMETRO INTERIOR</text></g><g stroke="#5A6470" stroke-width="1.2" fill="none"><line x1="234" y1="535" x2="234" y2="553"/><line x1="626" y1="535" x2="626" y2="553"/><line x1="234" y1="544" x2="626" y2="544"/><path d="M243 540L234 544l9 4"/><path d="M617 540L626 544l-9 4"/></g><rect x="390" y="532" width="80" height="22" fill="#EFF0EC"/><text x="430" y="548" text-anchor="middle" font-family="Inter, Helvetica, Arial, sans-serif" font-size="13" fill="#1C1F22">Ø exterior</text><g font-family="Inter, Helvetica, Arial, sans-serif"><line x1="60" y1="617" x2="840" y2="617" stroke="#C9CDC4" stroke-width="1.4"/><rect x="60" y="629" width="4" height="18" fill="#E8590C"/><text x="76" y="643" font-size="17" font-weight="700" fill="#1C1F22" letter-spacing="1.6">EB-03</text><text x="840" y="643" text-anchor="end" font-size="11.5" fill="#5A6470" letter-spacing="3">VISTA FRONTAL · 8 PERFORACIONES</text></g></svg>