<svg xmlns="http://www.w3.org/2000/svg" viewBox="0 0 1600 1000" width="1600" height="1000" fill="none" stroke-linecap="round" stroke-linejoin="round"><defs><linearGradient id="bg" x1="0" y1="0" x2="0" y2="1"><stop offset="0" stop-color="#06080D"/><stop offset="1" stop-color="#121826"/></linearGradient><radialGradient id="gl" cx="0.74" cy="0.42" r="0.6"><stop offset="0" stop-color="#C9A050" stop-opacity="0.26"/><stop offset="1" stop-color="#C9A050" stop-opacity="0"/></radialGradient><linearGradient id="au" x1="0" y1="0" x2="1" y2="1"><stop offset="0" stop-color="#7A5420"/><stop offset="0.55" stop-color="#C9A050"/><stop offset="1" stop-color="#F0D9A0"/></linearGradient><linearGradient id="ob" x1="0" y1="0" x2="0" y2="1"><stop offset="0" stop-color="#1a2131"/><stop offset="1" stop-color="#0b0e15"/></linearGradient><linearGradient id="fl" x1="0" y1="0" x2="0" y2="1"><stop offset="0" stop-color="#C9A050" stop-opacity="0.22"/><stop offset="1" stop-color="#C9A050" stop-opacity="0"/></linearGradient></defs><rect width="1600" height="1000" fill="url(#bg)"/><rect width="1600" height="1000" fill="url(#gl)"/><g><path d="M1369.2 500l-26.4 43.1-28.5 42.7-30.6 41.9-32.4 40.8-34.3 39.3-35.9 37.4-37.4 35.3-38.7 32.8-40 30-41 27-41.9 23.6-42.6 20.2-43.2 16.5-43.5 12.7-43.7 8.7-43.8 4.8-43.7 0.6-43.3-3.3-42.9-7.5-42.2-11.3-41.4-15.3-40.4-18.9-39.3-22.6-37.9-25.9-36.6-29-34.9-31.9-33.2-34.5-31.4-36.7-29.4-38.7-27.3-40.4-25.1-41.6-22.7-42.4-20.4-43-17.9-43.1-15.4-42.9-12.8-42.2-10.1-41.2-7.4-39.9-4.7-38.1-1.9-36 0.8-33.7 3.5-30.9 6.3-28 9-24.8 11.7-21.4 14.3-17.7 16.9-14 19.3-10.1 21.8-6 24.2-2.1 26.4 2.1 28.5 6 30.6 10.1 32.4 14 34.3 17.7 35.9 21.4 37.4 24.8 38.7 28 40 30.9 41 33.7 41.9 36 42.6 38.1 43.2 39.9 43.5 41.2 43.7 42.2 43.8 42.9 43.7 43.1 43.3 43 42.9 42.4 42.2 41.6 41.4 40.4 40.4 38.7 39.3 36.7 37.9 34.5 36.6 31.9 34.9 29 33.2 25.9 31.4 22.6 29.4 18.9 27.3 15.3 25.1 11.3 22.7 7.5 20.4 3.3 17.9-0.6 15.4-4.8 12.8-8.7 10.1-12.7 7.4-16.5 4.7-20.2 1.9-23.6-0.8-27-3.5-30-6.3-32.8-9-35.3-11.7-37.4-14.3-39.3-16.9-40.8-19.3-41.9-21.8-42.7-24.2-43.1-26.4-43.1-28.5-42.7-30.6-41.9-32.4-40.8-34.3-39.3-35.9-37.4-37.4-35.3-38.7-32.8-40-30-41-27-41.9-23.6-42.6-20.2-43.2-16.5-43.5-12.7-43.7-8.7-43.8-4.8-43.7-0.6-43.3 3.3-42.9 7.5-42.2 11.3-41.4 15.3-40.4 18.9-39.3 22.6-37.9 25.9-36.6 29-34.9 31.9-33.2 34.5-31.4 36.7-29.4 38.7-27.3 40.4-25.1 41.6-22.7 42.4-20.4 43-17.9 43.1-15.4 42.9-12.8 42.2-10.1 41.2-7.4 39.9-4.7 38.1-1.9 36 0.8 33.7 3.5 30.9 6.3 28 9 24.8 11.7 21.4 14.3 17.7 16.9 14 19.3 10.1 21.8 6 24.2 2.1 26.4-2.1 28.5-6 30.6-10.1 32.4-14 34.3-17.7 35.9-21.4 37.4-24.8 38.7-28 40-30.9 41-33.7 41.9-36 42.6-38.1 43.2-39.9 43.5-41.2 43.7-42.2 43.8-42.9 43.7-43.1 43.3-43 42.9-42.4 42.2-41.6 41.4-40.4 40.4-38.7 39.3-36.7 37.9-34.5 36.6-31.9 34.9-29 33.2-25.9 31.4-22.6 29.4-18.9 27.3-15.3 25.1-11.3 22.7-7.5 20.4-3.3 17.9 0.6 15.4 4.8 12.8 8.7 10.1 12.7 7.4 16.5 4.7 20.2 1.9 23.6-0.8 27-3.5 30-6.3 32.8-9 35.3-11.7 37.4-14.3 39.3-16.9 40.8-19.3 41.9-21.8 42.7-24.2 43.1Z" stroke="#7A5420" stroke-width="0.8" stroke-opacity="0.1"/><path d="M1128.8 500l-63.7 61.3-66.1 59.8-67.9 56.8-69 52.4-69.6 46.8-69.5 39.9-68.8 32.1-67.5 23.6-65.7 14.3-63.1 4.8-60.2-4.8-56.5-14.3-52.5-23.6-47.9-32.1-43-39.9-37.6-46.8-32-52.4-26-56.8-19.8-59.8-13.4-61.3-7-61.3-0.4-59.8 6.2-56.8 12.7-52.4 19-46.8 25.3-39.9 31.2-32.1 37-23.6 42.4-14.3 47.4-4.8 51.9 4.8 56.1 14.3 59.7 23.6 62.9 32.1 65.4 39.9 67.3 46.8 68.7 52.4 69.4 56.8 69.6 59.8 69.2 61.3 68 61.3 66.3 59.8 64.1 56.8 61.2 52.4 57.8 46.8 53.9 39.9 49.5 32.1 44.7 23.6 39.4 14.3 33.9 4.8 28-4.8 21.9-14.3 15.6-23.6 9.1-32.1 2.5-39.9-3.9-46.8-10.5-52.4-17-56.8-23.2-59.8-29.3-61.3-35.1-61.3-40.6-59.8-45.7-56.8-50.5-52.4-54.8-46.8-58.6-39.9-61.8-32.1-64.6-23.6-66.8-14.3-68.3-4.8-69.2 4.8-69.7 14.3-69.3 23.6-68.5 32.1-66.9 39.9-64.9 46.8-62.2 52.4-59 56.8-55.3 59.8-51 61.3-46.3 61.3-41.3 59.8-35.7 56.8-30 52.4-24 46.8-17.7 39.9-11.3 32.1-4.7 23.6 1.8 14.3 8.3 4.8 14.8-4.8 21.2-14.3 27.3-23.6 33.2-32.1 38.8-39.9 44-46.8 49-52.4 53.4-56.8 57.4-59.8 60.8-61.3 63.7-61.3 66.1-59.8 67.9-56.8 69-52.4 69.6-46.8 69.5-39.9 68.8-32.1 67.5-23.6 65.7-14.3 63.1-4.8 60.2 4.8 56.5 14.3 52.5 23.6 47.9 32.1 43 39.9 37.6 46.8 32 52.4 26 56.8 19.8 59.8 13.4 61.3 7 61.3 0.4 59.8-6.2 56.8-12.7 52.4-19 46.8-25.3 39.9-31.2 32.1-37 23.6-42.4 14.3-47.4 4.8-51.9-4.8-56.1-14.3-59.7-23.6-62.9-32.1-65.4-39.9-67.3-46.8-68.7-52.4-69.4-56.8-69.6-59.8-69.2-61.3-68-61.3-66.3-59.8-64.1-56.8-61.2-52.4-57.8-46.8-53.9-39.9-49.5-32.1-44.7-23.6-39.4-14.3-33.9-4.8-28 4.8-21.9 14.3-15.6 23.6-9.1 32.1-2.5 39.9 3.9 46.8 10.5 52.4 17 56.8 23.2 59.8 29.3 61.3 35.1 61.3 40.6 59.8 45.7 56.8 50.5 52.4 54.8 46.8 58.6 39.9 61.8 32.1 64.6 23.6 66.8 14.3 68.3 4.8 69.2-4.8 69.7-14.3 69.3-23.6 68.5-32.1 66.9-39.9 64.9-46.8 62.2-52.4 59-56.8 55.3-59.8 51-61.3 46.3-61.3 41.3-59.8 35.7-56.8 30-52.4 24-46.8 17.7-39.9 11.3-32.1 4.7-23.6-1.8-14.3-8.3-4.8-14.8 4.8-21.2 14.3-27.3 23.6-33.2 32.1-38.8 39.9-44 46.8-49 52.4-53.4 56.8-57.4 59.8-60.8 61.3Z" stroke="#C9A050" stroke-width="0.8" stroke-opacity="0.08"/><path d="M990.9 500l-85.5 90.9-87.2 87.6-87.4 81.3-86.3 72.2-83.9 60.3-80.1 46.5-75.1 30.9-68.8 14.3-61.6-2.9-53.2-19.9-44.2-36.2-34.3-51.4-24-64.5-13.2-75.5-2.3-83.7 8.7-89.1 19.5-91.2 30.1-90.2 40.1-85.9 49.6-78.5 58.2-68.5 65.9-55.9 72.6-41.5 78.2-25.4 82.4-8.6 85.5 8.6 87.2 25.4 87.4 41.5 86.3 55.9 83.9 68.5 80.1 78.5 75.1 85.9 68.8 90.2 61.6 91.2 53.2 89.1 44.2 83.7 34.3 75.5 24 64.5 13.2 51.4 2.3 36.2-8.7 19.9-19.5 2.9-30.1-14.3-40.1-30.9-49.6-46.5-58.2-60.3-65.9-72.2-72.6-81.3-78.2-87.6-82.4-90.9-85.5-90.9-87.2-87.6-87.4-81.3-86.3-72.2-83.9-60.3-80.1-46.5-75.1-30.9-68.8-14.3-61.6 2.9-53.2 19.9-44.2 36.2-34.3 51.4-24 64.5-13.2 75.5-2.3 83.7 8.7 89.1 19.5 91.2 30.1 90.2 40.1 85.9 49.6 78.5 58.2 68.5 65.9 55.9 72.6 41.5 78.2 25.4 82.4 8.6 85.5-8.6 87.2-25.4 87.4-41.5 86.3-55.9 83.9-68.5 80.1-78.5 75.1-85.9 68.8-90.2 61.6-91.2 53.2-89.1 44.2-83.7 34.3-75.5 24-64.5 13.2-51.4 2.3-36.2-8.7-19.9-19.5-2.9-30.1 14.3-40.1 30.9-49.6 46.5-58.2 60.3-65.9 72.2-72.6 81.3-78.2 87.6-82.4 90.9-85.5 90.9-87.2 87.6-87.4 81.3-86.3 72.2-83.9 60.3-80.1 46.5-75.1 30.9-68.8 14.3-61.6-2.9-53.2-19.9-44.2-36.2-34.3-51.4-24-64.5-13.2-75.5-2.3-83.7 8.7-89.1 19.5-91.2 30.1-90.2 40.1-85.9 49.6-78.5 58.2-68.5 65.9-55.9 72.6-41.5 78.2-25.4 82.4-8.6 85.5 8.6 87.2 25.4 87.4 41.5 86.3 55.9 83.9 68.5 80.1 78.5 75.1 85.9 68.8 90.2 61.6 91.2 53.2 89.1 44.2 83.7 34.3 75.5 24 64.5 13.2 51.4 2.3 36.2-8.7 19.9-19.5 2.9-30.1-14.3-40.1-30.9-49.6-46.5-58.2-60.3-65.9-72.2-72.6-81.3-78.2-87.6-82.4-90.9-85.5-90.9-87.2-87.6-87.4-81.3-86.3-72.2-83.9-60.3-80.1-46.5-75.1-30.9-68.8-14.3-61.6 2.9-53.2 19.9-44.2 36.2-34.3 51.4-24 64.5-13.2 75.5-2.3 83.7 8.7 89.1 19.5 91.2 30.1 90.2 40.1 85.9 49.6 78.5 58.2 68.5 65.9 55.9 72.6 41.5 78.2 25.4 82.4 8.6 85.5-8.6 87.2-25.4 87.4-41.5 86.3-55.9 83.9-68.5 80.1-78.5 75.1-85.9 68.8-90.2 61.6-91.2 53.2-89.1 44.2-83.7 34.3-75.5 24-64.5 13.2-51.4 2.3-36.2-8.7-19.9-19.5-2.9-30.1 14.3-40.1 30.9-49.6 46.5-58.2 60.3-65.9 72.2-72.6 81.3-78.2 87.6-82.4 90.9Z" stroke="#F0D9A0" stroke-width="0.8" stroke-opacity="0.12"/></g><g><path d="M1172 480l68.9 21 47.1 25.6 11.2 25.2-27.4 19.1-56.1 10-66.3 1.7-55.5-0.9-28.1 4.7 6.3 17.9 35.6 34.3 50.5 48.2 46.1 53 24.6 45.6-6.5 26.8-36.8 1.9-57.2-21-61.9-33.6-51.2-31-29.9-12.8-6.6 15.4 10.8 44 17.2 63.1 11.3 64.9-3.2 47.6-20.2 15.7-33.7-21.1-39.4-51-36.7-64.3-28.3-56.3-18.6-29.7-12.2 6.7-11 40.6-14.8 60.7-20.6 59.8-24.3 38.1-23 2.5-16.3-35.6-6.3-63.8 2.5-73.4 5.7-61.8 0.5-33.5-12.3 1.8-28.7 32.1-42.4 48-47.4 44.6-40.2 24.2-21.7-5.9 2.6-35.3 24.9-54.8 36.9-58.7 33.4-47.2 14.3-25.4-14.8-1.5-44.4 16.2-64.6 22.8-67.4 17.1-51.1 2.5-20.2-14.7 15.7-28.5 44.7-34.6 57.2-32.5 48.6-24.6 21.4-15.8-15.3-10-49.6-9.7-69.8-14.4-68.9-21-47.1-25.6-11.2-25.2 27.4-19.1 56.1-10 66.3-1.7 55.5 0.9 28.1-4.7-6.3-17.9-35.6-34.3-50.5-48.2-46.1-53-24.6-45.6 6.5-26.8 36.8-1.9 57.2 21 61.9 33.6 51.2 31 29.9 12.8 6.6-15.4-10.8-44-17.2-63.1-11.3-64.9 3.2-47.6 20.2-15.7 33.7 21.1 39.4 51 36.7 64.3 28.3 56.3 18.6 29.7 12.2-6.7 11-40.6 14.8-60.7 20.6-59.8 24.3-38.1 23-2.5 16.3 35.6 6.3 63.8-2.5 73.4-5.7 61.8-0.5 33.5 12.3-1.8 28.7-32.1 42.4-48 47.4-44.6 40.2-24.2 21.7 5.9-2.6 35.3-24.9 54.8-36.9 58.7-33.4 47.2-14.3 25.4 14.8 1.5 44.4-16.2 64.6-22.8 67.4-17.1 51.1-2.5 20.2 14.7-15.7 28.5-44.7 34.6-57.2 32.5-48.6 24.6-21.4 15.8 15.3 10 49.6 9.7 69.8 14.4" stroke="#7A5420" stroke-width="0.7" stroke-opacity="0.33"/><path d="M1279.1 480l-2.2 22.7-39.6 19.1-65.5 11.7-71.5 4.4-56.1 1.3-25 5.2 11.6 15.5 41.2 29 54.6 40.2 47.7 43.9 23.7 36.8-9.2 20.1-39.9-1.4-58.7-20.3-60.5-29.1-45.9-23.8-21.1-4.7 4.9 22.9 23.5 49.5 29 66 20.8 65.8 3 47.6-17.6 16.6-33.8-17.4-41.1-43.5-38.7-52.4-29.1-40.9-17.5-12.2-8.9 24.1-6.5 56-10.1 72.6-17.1 67.7-23.5 42.5-25.7 4.9-22.7-33.4-15.9-60-9-66.9-6.1-52.6-10.2-22.4-20.5 13-33.9 41.6-44.9 53.9-48.1 46-40.5 21.1-23.2-12.7-1.1-44.2 18.7-63.8 28.4-66.1 24.1-52 5.8-27.5-20.7-1.7-46.4 16.8-61.9 22.4-60.7 14.5-41.7-3-10-23.1 24.9-38.8 51.4-45.4 60.8-42.2 49.5-31.8 21.2-19.4-15.2-10-47.2-6.6-63.9-9.4-59.5-15.5-34.9-21.2 2.2-22.7 39.6-19.1 65.5-11.7 71.5-4.4 56.1-1.3 25-5.2-11.6-15.5-41.2-29-54.6-40.2-47.7-43.9-23.7-36.8 9.2-20.1 39.9 1.4 58.7 20.3 60.5 29.1 45.9 23.8 21.1 4.7-4.9-22.9-23.5-49.5-29-66-20.8-65.8-3-47.6 17.6-16.6 33.8 17.4 41.1 43.5 38.7 52.4 29.1 40.9 17.5 12.2 8.9-24.1 6.5-56 10.1-72.6 17.1-67.7 23.5-42.5 25.7-4.9 22.7 33.4 15.9 60 9 66.9 6.1 52.6 10.2 22.4 20.5-13 33.9-41.6 44.9-53.9 48.1-46 40.5-21.1 23.2 12.7 1.1 44.2-18.7 63.8-28.4 66.1-24.1 52-5.8 27.5 20.7 1.7 46.4-16.8 61.9-22.4 60.7-14.5 41.7 3 10 23.1-24.9 38.8-51.4 45.4-60.8 42.2-49.5 31.8-21.2 19.4 15.2 10 47.2 6.6 63.9 9.4 59.5 15.5 34.9 21.2" stroke="#C9A050" stroke-width="0.7" stroke-opacity="0.32"/><path d="M1253.9 480l-62.9 18.6-66.1 12.4-48.1 8.8-15.5 10.6 20.6 18 48 28.5 57.5 37.2 46.2 39.5 18 32.6-17.7 17.5-49.4-1.7-67.3-18.1-66.6-25.4-48.7-19.8-21-1.9 7.1 22.4 26 45.2 30.3 57.6 19.9 54-0.6 34.2-23.5 3.4-40.9-28.6-47.9-51.5-43.3-56.9-30.4-42.7-15-12.9-2.8 22.7 2.4 52.5-0.1 65.9-7.4 58.2-15.4 31.2-20-6.4-19.3-42.5-14.2-65.2-7.8-67.3-4.1-48.3-6.1-14.6-13.9 22.7-24.6 50.9-33.9 61.5-36.8 51-30.7 23.5-16.2-11.5 2-42.6 17.5-60.1 23.9-59.1 17.3-41.2-1.4-13.4-26.8 14.5-50.3 33.1-63.5 37.1-60.7 26.1-41.4 5-11.1-18.7 20.6-36.9 43.1-44.6 48.5-40.9 34.4-29 4.8-14.5-30.7-3.2-59.8 1.2-72.6-2.1-64.2-10-36.4-18.7 2-23.8 39.2-23.5 62.9-18.6 66.1-12.4 48.1-8.8 15.5-10.6-20.6-18-48-28.5-57.5-37.2-46.2-39.5-18-32.6 17.7-17.5 49.4 1.7 67.3 18.1 66.6 25.4 48.7 19.8 21 1.9-7.1-22.4-26-45.2-30.3-57.6-19.9-54 0.6-34.2 23.5-3.4 40.9 28.6 47.9 51.5 43.3 56.9 30.4 42.7 15 12.9 2.8-22.7-2.4-52.5 0.1-65.9 7.4-58.2 15.4-31.2 20 6.4 19.3 42.5 14.2 65.2 7.8 67.3 4.1 48.3 6.1 14.6 13.9-22.7 24.6-50.9 33.9-61.5 36.8-51 30.7-23.5 16.2 11.5-2 42.6-17.5 60.1-23.9 59.1-17.3 41.2 1.4 13.4 26.8-14.5 50.3-33.1 63.5-37.1 60.7-26.1 41.4-5 11.1 18.7-20.6 36.9-43.1 44.6-48.5 40.9-34.4 29-4.8 14.5 30.7 3.2 59.8-1.2 72.6 2.1 64.2 10 36.4 18.7-2 23.8-39.2 23.5" stroke="#F0D9A0" stroke-width="0.7" stroke-opacity="0.25"/><path d="M1090.1 480l-40 11.9-4.6 11.5 32.2 16.5 58.3 24.9 65.1 32.5 50.7 35.4 19.8 30.5-17.1 18.8-48.3 3.5-64-9.1-60.1-13.5-39-6.7-8.7 10.7 20.2 33.3 38.1 53.4 39.6 63.3 25.3 58.2 0.6 38.3-25.9 9.1-45.6-19.9-53.2-39.3-47.8-41.7-33.1-25.6-15.6 3.9-1.9 37.5 3.6 63.4 0.2 72.2-9.6 60.2-20.7 30.1-28.9-8.7-30.9-44-27.6-64.9-21.2-64.3-16.1-43.3-15.3-9-19.8 27-27.5 52.3-34.5 58.4-36.6 43.3-30.9 12-18.2-25.3-2.1-56.6 11.4-72.4 16.8-68.4 10.7-47.1-5.9-16.4-27.7 12.9-47.2 31.5-56.5 33.7-51.1 20.2-30.9-3.7-1.6-29.3 27.6-48.1 46.7-54.7 48.9-48.4 32.4-32.8 2.2-14.4-31.9 0.1-58.5 6.3-68.3 3.5-57.2-5.7-28.2-16.6 9.6-24.3 44-26.4 63.6-22.9 62-16.8 40-11.9 4.6-11.5-32.2-16.5-58.3-24.9-65.1-32.5-50.7-35.4-19.8-30.5 17.1-18.8 48.3-3.5 64 9.1 60.1 13.5 39 6.7 8.7-10.7-20.2-33.3-38.1-53.4-39.6-63.3-25.3-58.2-0.6-38.3 25.9-9.1 45.6 19.9 53.2 39.3 47.8 41.7 33.1 25.6 15.6-3.9 1.9-37.5-3.6-63.4-0.2-72.2 9.6-60.2 20.7-30.1 28.9 8.7 30.9 44 27.6 64.9 21.2 64.3 16.1 43.3 15.3 9 19.8-27 27.5-52.3 34.5-58.4 36.6-43.3 30.9-12 18.2 25.3 2.1 56.6-11.4 72.4-16.8 68.4-10.7 47.1 5.9 16.4 27.7-12.9 47.2-31.5 56.5-33.7 51.1-20.2 30.9 3.7 1.6 29.3-27.6 48.1-46.7 54.7-48.9 48.4-32.4 32.8-2.2 14.4 31.9-0.1 58.5-6.3 68.3-3.5 57.2 5.7 28.2 16.6-9.6 24.3-44 26.4-63.6 22.9-62 16.8" stroke="#7A5420" stroke-width="0.7" stroke-opacity="0.28"/><path d="M1064.9 480l34 14.2 57 19.8 59.7 25.8 41.4 28.3 7.6 24.6-30.3 14.8-60.3 1.9-73.2-9-65.4-12.9-40.3-6.9-7 8 23.3 27.2 40.9 43.8 40.7 50.8 23.8 44.1-3.2 24.5-30.8-2.4-50.3-28.2-55.7-43.6-47-42.5-28.3-24.4-7 5.8 9.5 38 16.2 61.5 12.3 67.8 0.8 54-13.3 23.8-24-13.2-28.5-45.1-25.9-61.1-19.3-55.8-12.6-30.8-9.7 5.7-11.9 41.7-18.2 65.2-25.1 68.3-28.4 50.2-25.7 16.5-16.7-21.4-4.6-51.6 5.4-64.8 8.6-57.4 2-32.9-13.5-0.4-33.3 29.2-50.1 45.9-57.3 44.8-50.8 27-31.1-1-3.9-29.6 22.1-50.1 37.9-56.4 37.5-48.6 20-30.7-9.2-10.2-40.7 5.8-63.2 11.9-68.5 7.7-53.6-4.1-22.3-18.3 15.7-29 48.6-33.3 65.7-30.5 61.2-23.4 37.1-16.3 1.4-12.7-34-14.2-57-19.8-59.7-25.8-41.4-28.3-7.6-24.6 30.3-14.8 60.3-1.9 73.2 9 65.4 12.9 40.3 6.9 7-8-23.3-27.2-40.9-43.8-40.7-50.8-23.8-44.1 3.2-24.5 30.8 2.4 50.3 28.2 55.7 43.6 47 42.5 28.3 24.4 7-5.8-9.5-38-16.2-61.5-12.3-67.8-0.8-54 13.3-23.8 24 13.2 28.5 45.1 25.9 61.1 19.3 55.8 12.6 30.8 9.7-5.7 11.9-41.7 18.2-65.2 25.1-68.3 28.4-50.2 25.7-16.5 16.7 21.4 4.6 51.6-5.4 64.8-8.6 57.4-2 32.9 13.5 0.4 33.3-29.2 50.1-45.9 57.3-44.8 50.8-27 31.1 1 3.9 29.6-22.1 50.1-37.9 56.4-37.5 48.6-20 30.7 9.2 10.2 40.7-5.8 63.2-11.9 68.5-7.7 53.6 4.1 22.3 18.3-15.7 29-48.6 33.3-65.7 30.5-61.2 23.4-37.1 16.3-1.4 12.7" stroke="#C9A050" stroke-width="0.7" stroke-opacity="0.3"/><circle cx="800" cy="480" r="588" fill="none" stroke="#7A5420" stroke-width="1" stroke-opacity="0.22"/></g><rect y="880" width="1600" height="120" fill="url(#fl)"/><path d="M0 880H1600" stroke="#C9A050" stroke-opacity="0.55" stroke-width="1.5"/><circle cx="800" cy="480" r="352" fill="url(#ob)" stroke="url(#au)" stroke-width="2.5"/><circle cx="800" cy="480" r="335" stroke="url(#au)" stroke-width="1.5" opacity=".6"/>
<g><path d="M955 480l20.4 7.2 14.1 8.3 3.5 8.2-7.6 6.8-16.2 4.5-19.3 2.5-16.2 1.8-8.2 3.2 2 6.5 10.8 10.8 15.4 14.2 14.4 15.6 8.1 13.7-1.4 9.1-10.9 2.7-17.6-3.2-19.6-6.5-16.5-5.9-9.9-1.3-2.2 6.1 4 13.5 6.7 18.6 5.3 19.3 0.4 14.8-5.9 6.3-11.7-3.6-15.1-11.8-15.2-15.6-12.7-13.8-8.6-6.8-4.7 3.2-2.3 12.7-1.9 18.5-3.3 18.5-5.7 12.4-7.7 2.2-8.5-9.2-7.8-17.9-6.3-21.3-4.8-18.4-4.1-10.2-4.9 0.6-6.8 10.4-9.1 16-10.3 15.4-9.9 9.1-7.3-0.9-3.2-11.3 1.1-18.8 3.9-21.1 3.9-17.8 0.7-9.9-4.7-0.5-10.8 7.5-15.3 11.5-16.4 10.6-13.4 5.1-6.9-2.9 1.3-10.4 8.3-15.5 11.6-16.4 10.2-13.4 3.9-7.8-5.3-1.7-14.2 2.7-20.2 4.3-20.7 2.7-15.6-0.9-6.2-5.4 4.4-8.8 12.9-10.4 16.4-9.9 13.9-8 5.9-5.7-4.9-4.3-14.8-4.3-20.7-5.5-20.4-7.2-14.1-8.3-3.5-8.2 7.6-6.8 16.2-4.5 19.3-2.5 16.2-1.8 8.2-3.2-2-6.5-10.8-10.8-15.4-14.2-14.4-15.6-8.1-13.7 1.4-9.1 10.9-2.7 17.6 3.2 19.6 6.5 16.5 5.9 9.9 1.3 2.2-6.1-4-13.5-6.7-18.6-5.3-19.3-0.4-14.8 5.9-6.3 11.7 3.6 15.1 11.8 15.2 15.6 12.7 13.8 8.6 6.8 4.7-3.2 2.3-12.7 1.9-18.5 3.3-18.5 5.7-12.4 7.7-2.2 8.5 9.2 7.8 17.9 6.3 21.3 4.8 18.4 4.1 10.2 4.9-0.6 6.8-10.4 9.1-16 10.3-15.4 9.9-9.1 7.3 0.9 3.2 11.3-1.1 18.8-3.9 21.1-3.9 17.8-0.7 9.9 4.7 0.5 10.8-7.5 15.3-11.5 16.4-10.6 13.4-5.1 6.9 2.9-1.3 10.4-8.3 15.5-11.6 16.4-10.2 13.4-3.9 7.8 5.3 1.7 14.2-2.7 20.2-4.3 20.7-2.7 15.6 0.9 6.2 5.4-4.4 8.8-12.9 10.4-16.4 9.9-13.9 8-5.9 5.7 4.9 4.3 14.8 4.3 20.7 5.5" stroke="#7A5420" stroke-width="0.7" stroke-opacity="0.45"/><path d="M1009.6 480l9.9 9-1.3 8.8-12.3 7.5-19.9 5.3-21.8 3.4-17.5 2.6-8.6 4 1.8 6.8 10.3 10.4 13.9 13.1 11.8 13.8 4.6 11.5-5.2 6.6-14.4 0.6-20.3-4.7-20.9-7.2-16.7-5.9-9-0.8-0.9 6.5 5.3 13.4 7.6 17.6 5.4 17.4 0 12.3-6.7 3.8-12.4-5.5-15.3-12.7-14.9-15-11.5-11.9-7-3.9-2.7 6.4-0.3 15.3-0.2 20.3-2.1 19.2-4.8 12.4-7.3 1.8-8.5-9-8.1-16.6-6.8-18.6-5.3-14.3-4.8-5.1-5.4 5.8-7.4 15.1-9.4 19.4-10.8 17.6-10.4 10.1-8.1-0.6-4.5-10.9-0.9-17.8 1.1-19.1 0.5-14.7-2.9-6.3-8.4 3-13.9 10.5-17.7 13.3-18.1 10.9-14.3 4.3-7.6-4.5 0.2-12.3 6.5-17.1 9.1-17.4 6.7-13.9 0.2-7.8-8.7-1.7-16.8 2.5-21.3 3.4-20.4 1.1-14.1-3.3-4.1-8.1 6.5-11.8 14.3-13.3 16.9-12.4 13.3-10.1 4.9-7.4-5.8-5.7-14.8-5.3-19.2-6.3-17.5-7.8-9.9-9 1.3-8.8 12.3-7.5 19.9-5.3 21.8-3.4 17.5-2.6 8.6-4-1.8-6.8-10.3-10.4-13.9-13.1-11.8-13.8-4.6-11.5 5.2-6.6 14.4-0.6 20.3 4.7 20.9 7.2 16.7 5.9 9 0.8 0.9-6.5-5.3-13.4-7.6-17.6-5.4-17.4 0-12.3 6.7-3.8 12.4 5.5 15.3 12.7 14.9 15 11.5 11.9 7 3.9 2.7-6.4 0.3-15.3 0.2-20.3 2.1-19.2 4.8-12.4 7.3-1.8 8.5 9 8.1 16.6 6.8 18.6 5.3 14.3 4.8 5.1 5.4-5.8 7.4-15.1 9.4-19.4 10.8-17.6 10.4-10.1 8.1 0.6 4.5 10.9 0.9 17.8-1.1 19.1-0.5 14.7 2.9 6.3 8.4-3 13.9-10.5 17.7-13.3 18.1-10.9 14.3-4.3 7.6 4.5-0.2 12.3-6.5 17.1-9.1 17.4-6.7 13.9-0.2 7.8 8.7 1.7 16.8-2.5 21.3-3.4 20.4-1.1 14.1 3.3 4.1 8.1-6.5 11.8-14.3 13.3-16.9 12.4-13.3 10.1-4.9 7.4 5.8 5.7 14.8 5.3 19.2 6.3 17.5 7.8" stroke="#C9A050" stroke-width="0.7" stroke-opacity="0.45"/><path d="M977.3 480l-3.1 7.1-13.5 6-19.7 4.2-20.1 2.6-14.3 2.2-4.4 3.4 6.2 6.3 14.1 9.7 16.9 12.1 13.6 12.5 5.6 10.3-4.6 5.6-13.6 0.4-18.5-4-18.1-5.5-12.8-3.3-4.6 2.2 3.6 9.5 9.2 15.9 10.4 19.3 7.2 18.3 0.9 12.7-6.5 4.2-12.3-4.6-15.1-10.6-14.1-12-10.5-7.7-5.6 0.7-1.3 10.6 0.8 18.7 0.3 22.3-2.1 19.8-5.5 11.8-8.4 0.8-9.8-9.7-9.7-16.5-8.2-17.5-6.7-12.2-5.9-2.6-6.4 8.1-7.8 16.2-9.7 19.1-10.7 15.7-10.2 7.1-8-4.2-4.5-14.4-1.3-20.4 0.5-20.7-0.3-15.2-3.7-6.2-8.5 3.3-13.4 10-16.1 11.9-15.6 8.5-11.2 1-4.3-8 3.2-15.7 8.8-19.5 10.5-18.9 7.5-14.1 0.5-7.4-8.1-0.8-15.4 3.3-18.8 3.9-16.9 1.2-9.8-3.7 0.2-8.6 10.2-12.1 16.8-13.2 17.8-11.7 12.9-8.9 3.6-5.6-7.1-3.5-15.6-3-19.1-4-16.4-5.6-8-6.9 3.1-7.1 13.5-6 19.7-4.2 20.1-2.6 14.3-2.2 4.4-3.4-6.2-6.3-14.1-9.7-16.9-12.1-13.6-12.5-5.6-10.3 4.6-5.6 13.6-0.4 18.5 4 18.1 5.5 12.8 3.3 4.6-2.2-3.6-9.5-9.2-15.9-10.4-19.3-7.2-18.3-0.9-12.7 6.5-4.2 12.3 4.6 15.1 10.6 14.1 12 10.5 7.7 5.6-0.7 1.3-10.6-0.8-18.7-0.3-22.3 2.1-19.8 5.5-11.8 8.4-0.8 9.8 9.7 9.7 16.5 8.2 17.5 6.7 12.2 5.9 2.6 6.4-8.1 7.8-16.2 9.7-19.1 10.7-15.7 10.2-7.1 8 4.2 4.5 14.4 1.3 20.4-0.5 20.7 0.3 15.2 3.7 6.2 8.5-3.3 13.4-10 16.1-11.9 15.6-8.5 11.2-1 4.3 8-3.2 15.7-8.8 19.5-10.5 18.9-7.5 14.1-0.5 7.4 8.1 0.8 15.4-3.3 18.8-3.9 16.9-1.2 9.8 3.7-0.2 8.6-10.2 12.1-16.8 13.2-17.8 11.7-12.9 8.9-3.6 5.6 7.1 3.5 15.6 3 19.1 4 16.4 5.6 8 6.9" stroke="#F0D9A0" stroke-width="0.7" stroke-opacity="0.33"/><path d="M972.3 480l-12.8 6.5-18 5.1-17.2 3.7-10.5 3.4-0.3 4.8 10 7.3 16.8 10.4 18 12.4 13.4 12.4 4.1 10-6.5 5.6-15.2 0.5-19.4-3.1-18.1-4.1-12-1.5-3.5 3.9 4.6 10.6 9.6 16.2 9.7 18.4 5.5 16.2-1.6 10-9.3 1.3-14.9-7.1-17-12.4-15.4-12.7-10.8-7.9-5.4 0.8-0.9 10.3 1.3 17.3 0.5 19.5-2.2 15.8-5.8 6.9-8.7-4-10.1-14-9.7-19.7-7.8-19-5.9-12.6-4.6-2.4-4.6 8.2-5.7 15.7-7.3 17.5-8.1 13-7.5 3.7-5.4-7.4-2.4-16.7 0.5-21.5 1.7-20.1 0.7-13.3-2.7-3.4-7.4 6.2-11.8 12.6-14 13.6-13 9.3-8.5 1.2-2-7.9 4.8-15 9.2-18 9.6-16.2 5.6-10.6-1.8-3.2-10.4 3.4-17.1 7.1-19.7 7-16.9 3.4-9.5-2 0.3-7.4 9.5-11.1 14.8-11.9 14.4-10.3 8.4-7.1-1.6-3.7-11.9-1.6-19.7-1.3-21.7-2.7-17.7-4.7-8.5-6.4 2.9-7.2 12.8-6.5 18-5.1 17.2-3.7 10.5-3.4 0.3-4.8-10-7.3-16.8-10.4-18-12.4-13.4-12.4-4.1-10 6.5-5.6 15.2-0.5 19.4 3.1 18.1 4.1 12 1.5 3.5-3.9-4.6-10.6-9.6-16.2-9.7-18.4-5.5-16.2 1.6-10 9.3-1.3 14.9 7.1 17 12.4 15.4 12.7 10.8 7.9 5.4-0.8 0.9-10.3-1.3-17.3-0.5-19.5 2.2-15.8 5.8-6.9 8.7 4 10.1 14 9.7 19.7 7.8 19 5.9 12.6 4.6 2.4 4.6-8.2 5.7-15.7 7.3-17.5 8.1-13 7.5-3.7 5.4 7.4 2.4 16.7-0.5 21.5-1.7 20.1-0.7 13.3 2.7 3.4 7.4-6.2 11.8-12.6 14-13.6 13-9.3 8.5-1.2 2 7.9-4.8 15-9.2 18-9.6 16.2-5.6 10.6 1.8 3.2 10.4-3.4 17.1-7.1 19.7-7 16.9-3.4 9.5 2-0.3 7.4-9.5 11.1-14.8 11.9-14.4 10.3-8.4 7.1 1.6 3.7 11.9 1.6 19.7 1.3 21.7 2.7 17.7 4.7 8.5 6.4-2.9 7.2" stroke="#7A5420" stroke-width="0.7" stroke-opacity="0.53"/><path d="M974.6 480l-20.6 6.3-18.6 4.8-10.9 4.2-0.3 5.1 9.5 7.3 15.4 9.6 15.5 11 9.6 10.7-0.2 7.9-10.8 3.6-18.8-0.9-21.7-4.2-19.1-4.6-11.7-1.8-2.6 3.7 5.6 9.9 10 14.6 9.5 16.1 4.6 13.3-3.1 6.7-10.6-1.7-15.7-9.2-17-13.3-14.3-12.3-8.9-6.4-3 2.6 1.7 11.8 3.5 18.2 2.5 19.4-0.9 14.8-4.9 5.7-8.1-5-9.6-14-9.1-18-7.1-16-5-8.3-3.6 2.5-3.6 12.8-4.8 19.3-6.4 19.9-7.4 14.3-7.3 4.4-5.6-6.9-3.2-15.5-1-19.1-0.2-16.5-1.7-8.8-5.2 1.3-9.6 10.6-13.5 15.8-15.3 15.5-13.8 9.9-9.2 0.8-2.9-8.7 3.1-15.6 6.8-18 6.4-15.4 1.8-9.2-5.5-1.7-13.5 4.7-19.2 7.6-20.4 6.5-16.5 2-8.4-4.2 1.6-10 10.2-13.6 14.6-14.1 13.3-11.9 6.6-8.3-3.3-4.6-13-2.4-19.3-2-20-3.4-14.4-5.7-4.3-7.7 7.2-8.4 16.5-7.8 20.6-6.3 18.6-4.8 10.9-4.2 0.3-5.1-9.5-7.3-15.4-9.6-15.5-11-9.6-10.7 0.2-7.9 10.8-3.6 18.8 0.9 21.7 4.2 19.1 4.6 11.7 1.8 2.6-3.7-5.6-9.9-10-14.6-9.5-16.1-4.6-13.3 3.1-6.7 10.6 1.7 15.7 9.2 17 13.3 14.3 12.3 8.9 6.4 3-2.6-1.7-11.8-3.5-18.2-2.5-19.4 0.9-14.8 4.9-5.7 8.1 5 9.6 14 9.1 18 7.1 16 5 8.3 3.6-2.5 3.6-12.8 4.8-19.3 6.4-19.9 7.4-14.3 7.3-4.4 5.6 6.9 3.2 15.5 1 19.1 0.2 16.5 1.7 8.8 5.2-1.3 9.6-10.6 13.5-15.8 15.3-15.5 13.8-9.9 9.2-0.8 2.9 8.7-3.1 15.6-6.8 18-6.4 15.4-1.8 9.2 5.5 1.7 13.5-4.7 19.2-7.6 20.4-6.5 16.5-2 8.4 4.2-1.6 10-10.2 13.6-14.6 14.1-13.3 11.9-6.6 8.3 3.3 4.6 13 2.4 19.3 2 20 3.4 14.4 5.7 4.3 7.7-7.2 8.4-16.5 7.8" stroke="#C9A050" stroke-width="0.7" stroke-opacity="0.35"/><path d="M935.4 480l-16.8 4.8-7.9 4.3 3 4.9 12.6 6.8 17.6 9 16.6 10.3 9.7 9.9-0.6 7.4-10.9 3.6-18.1-0.2-19.8-2.6-15.9-2.3-7.8 1 1.7 6.6 9.5 12.5 13 16.7 11.3 17.5 5.2 14.2-3.1 7.6-10.9-0.4-15.8-7-16.5-9.8-13.2-7.9-7.5-1.5-1.3 7.7 2.8 16.2 4.1 21.5 2.2 21.3-2 15.6-6.6 5.9-10.3-4.8-11.9-12.9-11.3-16.1-9.2-12.9-6.9-4.8-5.3 5.9-5.1 15.3-6.3 20.4-7.8 19.4-9.1 12.2-9 1.5-7.5-9.9-5.4-18-3.3-20.6-2.7-17-4-8.6-7.1 1.7-10.9 10.2-14.1 14.4-14.9 12.7-12.8 5.9-8-3.8-1.6-13.3 3.9-19.6 6.9-20.9 6-17.3 1.2-10.1-6-2.2-13.1 4-17.8 6.5-17.9 4.8-13.1-0.3-4.5-6.8 5.1-12.6 12.9-15.6 16-15.5 13.5-12.4 6-8.1-4-4-13.5-1.4-18.7-1.1-18.3-2.8-11.8-5.2-1.4-7.4 9.6-8.3 17.7-7.8 20.4-6.4 16.8-4.8 7.9-4.3-3-4.9-12.6-6.8-17.6-9-16.6-10.3-9.7-9.9 0.6-7.4 10.9-3.6 18.1 0.2 19.8 2.6 15.9 2.3 7.8-1-1.7-6.6-9.5-12.5-13-16.7-11.3-17.5-5.2-14.2 3.1-7.6 10.9 0.4 15.8 7 16.5 9.8 13.2 7.9 7.5 1.5 1.3-7.7-2.8-16.2-4.1-21.5-2.2-21.3 2-15.6 6.6-5.9 10.3 4.8 11.9 12.9 11.3 16.1 9.2 12.9 6.9 4.8 5.3-5.9 5.1-15.3 6.3-20.4 7.8-19.4 9.1-12.2 9-1.5 7.5 9.9 5.4 18 3.3 20.6 2.7 17 4 8.6 7.1-1.7 10.9-10.2 14.1-14.4 14.9-12.7 12.8-5.9 8 3.8 1.6 13.3-3.9 19.6-6.9 20.9-6 17.3-1.2 10.1 6 2.2 13.1-4 17.8-6.5 17.9-4.8 13.1 0.3 4.5 6.8-5.1 12.6-12.9 15.6-16 15.5-13.5 12.4-6 8.1 4 4 13.5 1.4 18.7 1.1 18.3 2.8 11.8 5.2 1.4 7.4-9.6 8.3-17.7 7.8-20.4 6.4" stroke="#F0D9A0" stroke-width="0.7" stroke-opacity="0.36"/><path d="M937.7 480l-3.2 5.5 7.8 6.1 16.3 7.9 20 9.9 17.3 11.1 9.2 10.7-1.8 8.5-12.2 5-18.7 1.6-19.5-0.2-14.8 0.4-6 3.9 3.3 9 10.3 14.2 12.6 17.5 9.7 17.3 2.5 13.3-6.5 6.4-14.3-1.4-18.6-7.4-18.6-9.5-14.5-6.9-8.1-0.2-1.8 8.4 2.3 16.2 3.2 20 0.6 18.5-4 11.7-8.9 1.6-12.5-8.7-13.7-16.1-12.6-17.9-9.9-13.7-7-4.8-4.9 5.7-4.5 14.6-5.4 18.5-6.9 16.2-8 8.2-8-2.8-6.8-13.7-4.7-20.6-2.8-21.7-2.3-16.5-3.5-7.2-6.4 3.4-9.7 11.7-12.4 15-12.8 12.3-10.5 4.8-5.8-5.2-0.1-14.2 4.7-19.6 6.7-19.6 4.8-14.8-0.5-6.8-7.7 1.5-14.5 7.4-18.4 9.2-17.8 6.6-12.5 0.7-4.1-6.3 5-12 11.5-14.9 13.2-14.1 9.5-10.7 1.3-6-9-1.7-17.6 0.5-21.9 0.3-20.1-1.8-12.7-5-2.1-7.7 8.7-9 15.9-8.9 17.3-7.6 12.5-6.1 3.2-5.5-7.8-6.1-16.3-7.9-20-9.9-17.3-11.1-9.2-10.7 1.8-8.5 12.2-5 18.7-1.6 19.5 0.2 14.8-0.4 6-3.9-3.3-9-10.3-14.2-12.6-17.5-9.7-17.3-2.5-13.3 6.5-6.4 14.3 1.4 18.6 7.4 18.6 9.5 14.5 6.9 8.1 0.2 1.8-8.4-2.3-16.2-3.2-20-0.6-18.5 4-11.7 8.9-1.6 12.5 8.7 13.7 16.1 12.6 17.9 9.9 13.7 7 4.8 4.9-5.7 4.5-14.6 5.4-18.5 6.9-16.2 8-8.2 8 2.8 6.8 13.7 4.7 20.6 2.8 21.7 2.3 16.5 3.5 7.2 6.4-3.4 9.7-11.7 12.4-15 12.8-12.3 10.5-4.8 5.8 5.2 0.1 14.2-4.7 19.6-6.7 19.6-4.8 14.8 0.5 6.8 7.7-1.5 14.5-7.4 18.4-9.2 17.8-6.6 12.5-0.7 4.1 6.3-5 12-11.5 14.9-13.2 14.1-9.5 10.7-1.3 6 9 1.7 17.6-0.5 21.9-0.3 20.1 1.8 12.7 5 2.1 7.7-8.7 9-15.9 8.9-17.3 7.6-12.5 6.1" stroke="#7A5420" stroke-width="0.7" stroke-opacity="0.42"/><path d="M932.7 480l7.8 5.7 15.5 7.1 17.9 8.6 13.8 9.5 4.8 8.9-6.4 6.7-16.3 3.4-21.6 0.3-21.1-1.3-15-0.4-5.4 2.9 4.1 7.6 10.7 12.2 12.2 14.7 8.3 13.8 0.6 9.4-8.4 2.5-15.7-4.6-19.1-9.6-17.9-10.7-12.6-7.2-5.4 0.1 1.2 8.6 5.2 15.8 5.5 18.7 2.4 16.5-2.6 9.2-7.8-0.7-11.3-10.2-12.2-16.1-10.7-16.4-7.6-10.8-4.4-1.1-2.1 9.5-1.8 17.8-2.9 20.7-4.7 17.2-6.3 8.6-6.8-2.6-5.9-12.7-4.3-18.5-2.9-18.1-2.7-11.8-4-1.7-6.8 8.8-10 16.2-12.3 18.2-12.6 14.2-10.2 5.6-5.9-4.8-0.7-13.7 3.3-18.3 4.4-17.5 1.9-11.9-3.5-3.5-10.6 4.7-16.6 9.8-19.4 10.5-17.9 6.7-11.9-0.1-3.2-7.7 5.3-13.5 11.1-16 11.8-14.7 7.4-10.8-1.1-5.6-10.8-1.2-18.4 0.8-21.2 0.2-17.9-2.4-9.5-5.9 1.6-8.9 11.9-10.2 18.3-10 18.5-8.4 12.6-6.6 2.9-5.5-7.8-5.7-15.5-7.1-17.9-8.6-13.8-9.5-4.8-8.9 6.4-6.7 16.3-3.4 21.6-0.3 21.1 1.3 15 0.4 5.4-2.9-4.1-7.6-10.7-12.2-12.2-14.7-8.3-13.8-0.6-9.4 8.4-2.5 15.7 4.6 19.1 9.6 17.9 10.7 12.6 7.2 5.4-0.1-1.2-8.6-5.2-15.8-5.5-18.7-2.4-16.5 2.6-9.2 7.8 0.7 11.3 10.2 12.2 16.1 10.7 16.4 7.6 10.8 4.4 1.1 2.1-9.5 1.8-17.8 2.9-20.7 4.7-17.2 6.3-8.6 6.8 2.6 5.9 12.7 4.3 18.5 2.9 18.1 2.7 11.8 4 1.7 6.8-8.8 10-16.2 12.3-18.2 12.6-14.2 10.2-5.6 5.9 4.8 0.7 13.7-3.3 18.3-4.4 17.5-1.9 11.9 3.5 3.5 10.6-4.7 16.6-9.8 19.4-10.5 17.9-6.7 11.9 0.1 3.2 7.7-5.3 13.5-11.1 16-11.8 14.7-7.4 10.8 1.1 5.6 10.8 1.2 18.4-0.8 21.2-0.2 17.9 2.4 9.5 5.9-1.6 8.9-11.9 10.2-18.3 10-18.5 8.4-12.6 6.6-2.9 5.5" stroke="#C9A050" stroke-width="0.7" stroke-opacity="0.42"/><path d="M900.4 480l17.2 4.8 18.5 6.3 13.5 7.3 3.9 6.9-7.1 5-16.1 2.2-20.2-0.2-18.2-1.2-10.8 0.1-0.6 3.6 8.8 8.2 14.7 12.4 15.1 14.5 10.2 13.2 1.6 8.8-7.6 2.4-14.7-4-17.3-7.9-15.2-7.8-9.2-3.5-1.8 4 4.6 12.3 8 18.7 7.4 20.5 3.3 17.3-2.6 9.5-8.2-0.4-11.9-9.2-12.8-14.1-10.8-13.3-7.5-6.8-4 3-1.9 13.2-1.6 20.1-3 21.5-5.3 16.5-7.1 6.9-7.9-4.6-7.3-14.3-5.9-19.1-4.4-17.6-4.1-10.6-5.2-0.2-7.5 9.8-10.2 16.2-12 16.7-11.7 11.3-9 1.8-4.7-8.9 0.2-17.4 3.7-21 4.4-19 1.7-12.4-3.7-3.4-10 4.6-15.1 9.3-16.9 9.1-14.4 4.6-7.8-2.8 0.7-10.4 8.8-15.7 13.5-17.4 13.2-15.2 7.8-10.2-1-4.4-10.3 0.2-17 2.3-18.8 1.4-14.5-1.5-5.6-5.2 5.2-8.3 14.7-9.7 19.5-9.1 18.2-7.2 11-5.1 0.4-3.7-10.1-3.7-17.2-4.8-18.5-6.3-13.5-7.3-3.9-6.9 7.1-5 16.1-2.2 20.2 0.2 18.2 1.2 10.8-0.1 0.6-3.6-8.8-8.2-14.7-12.4-15.1-14.5-10.2-13.2-1.6-8.8 7.6-2.4 14.7 4 17.3 7.9 15.2 7.8 9.2 3.5 1.8-4-4.6-12.3-8-18.7-7.4-20.5-3.3-17.3 2.6-9.5 8.2 0.4 11.9 9.2 12.8 14.1 10.8 13.3 7.5 6.8 4-3 1.9-13.2 1.6-20.1 3-21.5 5.3-16.5 7.1-6.9 7.9 4.6 7.3 14.3 5.9 19.1 4.4 17.6 4.1 10.6 5.2 0.2 7.5-9.8 10.2-16.2 12-16.7 11.7-11.3 9-1.8 4.7 8.9-0.2 17.4-3.7 21-4.4 19-1.7 12.4 3.7 3.4 10-4.6 15.1-9.3 16.9-9.1 14.4-4.6 7.8 2.8-0.7 10.4-8.8 15.7-13.5 17.4-13.2 15.2-7.8 10.2 1 4.4 10.3-0.2 17-2.3 18.8-1.4 14.5 1.5 5.6 5.2-5.2 8.3-14.7 9.7-19.5 9.1-18.2 7.2-11 5.1-0.4 3.7 10.1 3.7" stroke="#F0D9A0" stroke-width="0.7" stroke-opacity="0.35"/><circle cx="800" cy="480" r="245" fill="none" stroke="#7A5420" stroke-width="1" stroke-opacity="0.33"/></g>
<path d="M800.0 188.0L800.0 160.0M832.0 175.7L833.4 161.8M863.6 180.7L866.5 167.0M894.6 189.0L898.9 175.7M924.5 200.5L930.2 187.7M946.0 227.1L960.0 202.9M979.9 232.4L988.1 221.1M1004.8 252.6L1014.1 242.2M1027.4 275.2L1037.8 265.9M1047.6 300.1L1058.9 291.9M1052.9 334.0L1077.1 320.0M1079.5 355.5L1092.3 349.8M1091.0 385.4L1104.3 381.1M1099.3 416.4L1113.0 413.5M1104.3 448.0L1118.2 446.6M1092.0 480.0L1120.0 480.0M1104.3 512.0L1118.2 513.4M1099.3 543.6L1113.0 546.5M1091.0 574.6L1104.3 578.9M1079.5 604.5L1092.3 610.2M1052.9 626.0L1077.1 640.0M1047.6 659.9L1058.9 668.1M1027.4 684.8L1037.8 694.1M1004.8 707.4L1014.1 717.8M979.9 727.6L988.1 738.9M946.0 732.9L960.0 757.1M924.5 759.5L930.2 772.3M894.6 771.0L898.9 784.3M863.6 779.3L866.5 793.0M832.0 784.3L833.4 798.2M800.0 772.0L800.0 800.0M768.0 784.3L766.6 798.2M736.4 779.3L733.5 793.0M705.4 771.0L701.1 784.3M675.5 759.5L669.8 772.3M654.0 732.9L640.0 757.1M620.1 727.6L611.9 738.9M595.2 707.4L585.9 717.8M572.6 684.8L562.2 694.1M552.4 659.9L541.1 668.1M547.1 626.0L522.9 640.0M520.5 604.5L507.7 610.2M509.0 574.6L495.7 578.9M500.7 543.6L487.0 546.5M495.7 512.0L481.8 513.4M508.0 480.0L480.0 480.0M495.7 448.0L481.8 446.6M500.7 416.4L487.0 413.5M509.0 385.4L495.7 381.1M520.5 355.5L507.7 349.8M547.1 334.0L522.9 320.0M552.4 300.1L541.1 291.9M572.6 275.2L562.2 265.9M595.2 252.6L585.9 242.2M620.1 232.4L611.9 221.1M654.0 227.1L640.0 202.9M675.5 200.5L669.8 187.7M705.4 189.0L701.1 175.7M736.4 180.7L733.5 167.0M768.0 175.7L766.6 161.8" stroke="url(#au)" stroke-width="2"/>
<path d="M800 480L800 270" stroke="url(#au)" stroke-width="7"/><path d="M800 480L930 560" stroke="url(#au)" stroke-width="10"/>
<circle cx="800" cy="480" r="16" fill="url(#au)"/><circle cx="800" cy="480" r="5" fill="#06080D"/>
<path d="M770 128V96h60v32M800 96V70" stroke="url(#au)" stroke-width="2.5"/><circle cx="800" cy="58" r="14" stroke="url(#au)" stroke-width="2.5"/>
<g stroke="url(#au)" stroke-width="1.5" opacity=".7"><path d="M310 800h980"/><path d="M420 840h760" opacity=".6"/></g><rect x="28" y="28" width="1544" height="944" rx="6" stroke="#C9A050" stroke-opacity="0.35" stroke-width="1.5"/><rect x="44" y="44" width="1512" height="912" rx="3" stroke="#C9A050" stroke-opacity="0.15" stroke-width="1"/></svg>